<svg width="69" height="69" viewBox="0 0 69 69" fill="none" xmlns="http://www.w3.org/2000/svg">
<circle cx="34.5" cy="34.5" r="34.5" fill="#2B8CFF"/>
<g clip-path="url(#clip0_7466_274)">
<path d="M45.0882 34.2118C38.8215 38.5512 38.9791 47.4603 45.0639 51.5815C44.8458 51.6058 44.7003 51.63 44.5548 51.63C35.7306 51.63 26.9064 51.63 18.0821 51.63C15.8397 51.63 14.4094 50.4058 14.0336 48.1755C13.8761 47.2664 13.7064 46.3451 13.5851 45.4239C13.1973 42.2603 14.1912 39.4845 16.0336 36.9876C17.6579 34.7936 19.8033 33.3148 22.4094 32.4906C22.7367 32.3815 22.9427 32.4179 23.2094 32.6724C28.3367 37.63 35.7791 37.63 40.9064 32.6967C41.0397 32.5633 41.3064 32.4421 41.4639 32.4785C42.7367 32.8542 43.9488 33.3997 45.0882 34.2118Z" fill="white"/>
<path d="M32.0453 13C38.0574 13 42.918 17.8485 42.918 23.8606C42.9301 29.8727 38.0574 34.7697 32.0937 34.7697C25.9968 34.7697 21.124 29.9333 21.124 23.8727C21.1119 17.8848 26.0089 13 32.0453 13Z" fill="white"/>
<path d="M42.0332 42.8793C42.0454 38.0551 45.9847 34.1399 50.809 34.1642C55.6211 34.1884 59.5484 38.1642 59.512 42.9642C59.4635 47.7763 55.5484 51.6551 50.7605 51.643C45.8999 51.6187 42.0211 47.7278 42.0332 42.8793ZM57.7787 42.9884C57.8514 39.1581 54.7484 35.9824 50.8454 35.8975C47.0757 35.8127 43.8393 38.9278 43.7666 42.7217C43.6938 46.6611 46.7363 49.8611 50.6272 49.9218C54.5423 49.9702 57.706 46.9157 57.7787 42.9884Z" fill="white"/>
<path d="M49.2822 44.5516C50.7488 43.0728 52.1428 41.6546 53.5488 40.2364C53.7064 40.0788 53.8519 39.9091 54.0216 39.7758C54.4822 39.4122 55.064 39.4364 55.4397 39.8243C55.8155 40.2243 55.8397 40.8182 55.4397 41.2425C54.8094 41.9213 54.1306 42.5637 53.4761 43.2182C52.3731 44.3213 51.2822 45.4122 50.1791 46.5152C49.5246 47.1576 49.0276 47.1455 48.361 46.491C47.6579 45.8001 46.9549 45.097 46.264 44.394C45.6579 43.7879 45.5973 43.1698 46.07 42.7091C46.567 42.2364 47.1246 42.3091 47.7428 42.9516C48.264 43.4607 48.7488 43.9819 49.2822 44.5516Z" fill="white"/>
</g>
<defs>
<clipPath id="clip0_7466_274">
<rect width="46" height="38.6424" fill="white" transform="translate(13.5 13)"/>
</clipPath>
</defs>
</svg>
