<svg width="50" height="50" viewBox="0 0 50 50" fill="none" xmlns="http://www.w3.org/2000/svg">
<rect width="50" height="50" rx="25" fill="#008D9E"/>
<path d="M21.9274 18.9313C21.9274 18.6636 21.8353 18.4053 21.6687 18.1987L21.5923 18.1127L18.3449 14.8653L18.2581 14.789C18.0487 14.6208 17.7876 14.5277 17.5167 14.5277C17.2072 14.5277 16.91 14.6489 16.6886 14.8653L15.9447 15.6258L15.936 15.6344C15.1509 16.4093 14.6565 17.4312 14.5358 18.5277C14.4158 19.6192 14.6736 20.7188 15.2659 21.6431L15.5966 22.124C19.0446 27.0772 23.3797 31.3517 28.3848 34.7299C29.3104 35.3249 30.4124 35.5838 31.5064 35.4634C32.6029 35.3428 33.6247 34.8485 34.3995 34.0633L34.4074 34.0546L35.1747 33.3028C35.3867 33.0823 35.5064 32.7887 35.5064 32.4826C35.5063 32.173 35.385 31.8757 35.1687 31.6544L31.9039 28.4243L31.8179 28.348C31.6408 28.2051 31.4257 28.1167 31.199 28.0945L31.0853 28.0893C30.7792 28.0893 30.4851 28.2098 30.2667 28.4243L29.7997 27.9487L30.2658 28.4252C29.7954 28.8851 29.1634 29.1431 28.5055 29.1431C27.8475 29.1431 27.2155 28.8852 26.745 28.4252L21.5966 23.2768C21.3641 23.0466 21.1787 22.7723 21.0523 22.4704C20.9252 22.1666 20.8596 21.8404 20.8596 21.5112C20.8597 21.1821 20.9253 20.8564 21.0523 20.5528C21.178 20.2525 21.3614 19.9794 21.5923 19.7499L21.6687 19.6648C21.8355 19.4581 21.9274 19.1993 21.9274 18.9313ZM23.2607 18.9313C23.2607 19.5871 23.0033 20.2171 22.5436 20.6848L22.068 20.2169L22.5359 20.6917C22.4273 20.7988 22.3412 20.9269 22.2824 21.0676C22.2236 21.2081 22.193 21.3589 22.193 21.5112C22.193 21.6637 22.2235 21.8149 22.2824 21.9556C22.3266 22.0611 22.3858 22.1596 22.4586 22.2473L22.5359 22.3306L27.6773 27.4721L27.7633 27.5485C27.9728 27.7168 28.2346 27.8098 28.5055 27.8098C28.8143 27.8098 29.1106 27.6885 29.3319 27.473L29.515 27.3106C29.9578 26.9533 30.5114 26.756 31.0853 26.756L31.3301 26.7682C31.8154 26.8158 32.2762 27.0044 32.6556 27.3106L32.8379 27.473L32.8397 27.4747L36.1139 30.7143L36.1217 30.7221L36.285 30.9061C36.6424 31.3512 36.8396 31.9069 36.8397 32.4826C36.8397 33.0583 36.6425 33.6146 36.285 34.0598L36.1217 34.2429C36.1183 34.2466 36.1149 34.2507 36.1114 34.2542L35.3474 34.999L35.3483 34.9999C34.3584 36.0031 33.0531 36.6348 31.6522 36.789C30.2513 36.9431 28.84 36.6102 27.6556 35.8462L28.0168 35.2855L27.6434 35.8385C22.5001 32.3677 18.045 27.9758 14.502 22.8862L14.1626 22.3914C14.1597 22.3871 14.1567 22.3827 14.1539 22.3784C13.3898 21.194 13.0562 19.7828 13.2103 18.3818C13.3644 16.9808 13.997 15.6756 15.0003 14.6857L15.7459 13.9226L15.7563 13.9122C16.2268 13.4522 16.8588 13.1943 17.5167 13.1943C18.0924 13.1943 18.648 13.3916 19.0931 13.749L19.2772 13.9122L22.5436 17.1787L22.706 17.361C23.0634 17.8038 23.2607 18.3574 23.2607 18.9313Z" fill="white"/>
</svg>
