<svg width="101" height="101" viewBox="0 0 101 101" fill="none" xmlns="http://www.w3.org/2000/svg">
<rect width="101" height="101" rx="22" fill="#33CED1"/>
<path d="M20.25 27.9375C20.25 23.6918 23.6918 20.25 27.9375 20.25H74.0625C78.3081 20.25 81.75 23.6918 81.75 27.9375V51.0745C78.2981 48.8646 74.1944 47.5833 69.7917 47.5833C57.5262 47.5833 47.5833 57.5262 47.5833 69.7917C47.5833 74.1944 48.8646 78.2981 51.0745 81.75H27.9375C23.6918 81.75 20.25 78.3081 20.25 74.0625V27.9375ZM45.1244 39.9995C46.1251 38.9988 46.1251 37.3762 45.1244 36.3755C44.1238 35.3748 42.5012 35.3748 41.5005 36.3755L36.4792 41.3969L34.8745 39.7922C33.8738 38.7915 32.2512 38.7915 31.2505 39.7922C30.2498 40.7929 30.2498 42.4154 31.2505 43.4161L34.6672 46.8327C35.6679 47.8334 37.2904 47.8334 38.2911 46.8327L45.1244 39.9995ZM45.1244 58.791C46.1251 57.7903 46.1251 56.168 45.1244 55.1673C44.1238 54.1666 42.5012 54.1666 41.5005 55.1673L36.4792 60.1884L34.8745 58.584C33.8738 57.5832 32.2512 57.5832 31.2505 58.584C30.2498 59.5847 30.2498 61.207 31.2505 62.2077L34.6672 65.6244C35.6679 66.6251 37.2904 66.6251 38.2911 65.6244L45.1244 58.791ZM55.2708 39.0417C53.8557 39.0417 52.7083 40.1889 52.7083 41.6042C52.7083 43.0194 53.8557 44.1667 55.2708 44.1667H67.2292C68.6444 44.1667 69.7917 43.0194 69.7917 41.6042C69.7917 40.1889 68.6444 39.0417 67.2292 39.0417H55.2708Z" fill="white"/>
<path d="M88.5833 69.7917C88.5833 59.4132 80.1701 51 69.7917 51C59.4132 51 51 59.4132 51 69.7917C51 80.1701 59.4132 88.5833 69.7917 88.5833C80.1701 88.5833 88.5833 80.1701 88.5833 69.7917ZM71.5021 71.5L71.5038 80.0536C71.5038 80.9973 70.7391 81.762 69.7954 81.762C68.8521 81.762 68.0871 80.9973 68.0871 80.0536L68.0854 71.5H59.5283C58.585 71.5 57.82 70.7353 57.82 69.7917C57.82 68.8483 58.585 68.0833 59.5283 68.0833H68.085L68.0833 59.5393C68.0833 58.5956 68.8483 57.8309 69.7917 57.8309C70.735 57.8309 71.5 58.5956 71.5 59.5393L71.5017 68.0833H80.0519C80.9956 68.0833 81.7603 68.8483 81.7603 69.7917C81.7603 70.7353 80.9956 71.5 80.0519 71.5H71.5021Z" fill="white"/>
</svg>
