<svg width="77" height="59" viewBox="0 0 77 59" fill="none" xmlns="http://www.w3.org/2000/svg">
<path d="M0 22.2365C0.660538 21.6624 1.40757 21.34 2.09957 20.9311C5.53594 18.8787 8.98017 16.8185 12.4323 14.7897C18.2985 11.3376 24.1804 7.90121 30.0545 4.45697C32.4529 3.05726 34.867 1.689 37.2418 0.249976C37.8237 -0.103884 38.264 -0.0645662 38.8145 0.257839C41.2836 1.69687 43.7685 3.10444 46.2455 4.51202C47.9991 5.51069 49.7605 6.49363 51.5141 7.48444C51.6478 7.56307 51.7893 7.61812 51.9073 7.68103C52.1746 7.55521 52.0803 7.35076 52.0803 7.18562C52.0803 5.71514 52.0724 4.25252 52.0724 2.78204C52.0724 2.17654 52.0803 2.16868 52.67 2.18441C54.2899 2.23159 55.9177 2.31022 57.5376 2.34168C57.9701 2.34954 58.0566 2.51468 58.0487 2.90785C58.033 5.42419 58.0487 7.94052 58.0094 10.4569C58.0015 11.0781 58.1824 11.4398 58.7407 11.7543C63.8441 14.6481 68.9318 17.5734 74.0274 20.4829C74.688 20.8603 75.3485 21.2378 76.0012 21.6152C76.127 21.686 76.3 21.741 76.3 21.9455C76.0641 22.1185 75.8518 21.9455 75.6473 21.8747C71.4482 20.475 67.3434 18.8315 63.2937 17.0386C57.8993 14.6403 52.7487 11.7937 47.6295 8.86842C44.6256 7.15417 41.6453 5.40846 38.6651 3.65489C38.1697 3.36394 37.8158 3.3718 37.3204 3.66275C33.2235 6.10045 29.1187 8.52243 24.9903 10.9051C20.6104 13.4293 16.1281 15.7569 11.4965 17.8093C7.90286 19.3977 4.23845 20.8053 0.518993 22.0949C0.393177 22.15 0.220179 22.1814 0 22.2365Z" fill="#182D4F"/>
<path d="M54.2193 40.7315C54.2114 40.7315 54.2114 40.7394 54.2114 40.7394C54.2193 40.7394 54.2193 40.7394 54.2272 40.7472C54.2193 40.7394 54.2193 40.7394 54.2193 40.7315Z" fill="#20568D"/>
<path d="M38.7752 39.4497C38.6966 41.3213 38.6258 42.9726 38.5708 44.624C38.5629 44.9621 38.4843 45.2059 38.1933 45.426C37.7923 45.7249 37.4542 46.0866 37.0688 46.409C36.4319 46.9437 36.5105 46.9123 36.0702 46.3225C35.4018 45.4103 34.6311 44.5925 33.7976 43.8297C32.0362 42.2256 30.0231 41.0146 27.8292 40.1103C27.6247 40.0238 27.3967 40.0238 27.3888 39.6778C27.3259 37.6883 27.2001 35.6988 27.6719 33.7329C27.8056 33.1746 27.9707 32.6163 28.2774 32.1209C28.9537 31.0357 30.0467 30.6662 31.2262 30.5639C32.508 30.4538 33.7976 30.4696 35.0715 30.5718C36.8801 30.7212 37.8788 31.6334 38.445 33.3712C38.7831 34.4171 38.7988 35.4787 38.8303 36.5402C38.8617 37.5861 38.846 38.6319 38.7752 39.4497Z" fill="#20568D"/>
<path d="M39.4828 39.7643C39.4671 38.569 39.3413 36.8705 39.5457 35.1641C39.8131 33.0016 40.859 31.8064 43.218 31.4053C44.5391 31.1852 45.8838 31.1773 47.2048 31.4997C48.8719 31.9086 49.9807 32.8837 50.2559 34.6687C50.4997 36.2571 50.4682 37.8534 50.4839 39.4497C50.4839 39.7957 50.3109 39.9373 50.0121 40.071C48.4237 40.7708 46.9375 41.6515 45.5614 42.7131C44.2088 43.759 42.99 44.9464 42.0464 46.3854C41.8026 46.755 41.6453 46.7314 41.315 46.4955C39.7187 45.3789 39.7109 45.3867 39.6244 43.4759C39.5772 42.4143 39.5457 41.337 39.4828 39.7643Z" fill="#182D4F"/>
<path d="M29.1184 24.1552C29.1027 23.0307 29.3464 21.9534 29.9047 20.994C31.2651 18.6507 34.4341 18.5485 36.0069 20.7817C37.2336 22.5195 37.2808 25.5627 36.1091 27.3556C34.5442 29.754 31.3359 29.6596 29.9047 27.1748C29.3622 26.2311 29.1498 25.2167 29.1184 24.1552Z" fill="#20568D"/>
<path d="M48.6202 25.665C48.6202 26.6322 48.3686 27.5286 47.9282 28.3779C46.7172 30.7369 43.6662 30.7999 42.1406 28.9126C41.1813 27.7252 40.8589 26.3569 41.0319 24.8629C41.1734 23.589 41.6531 22.4959 42.7225 21.7096C44.1223 20.6795 46.0252 20.7974 47.252 22.0163C48.2664 23.0228 48.6202 24.2731 48.6202 25.665Z" fill="#182D4F"/>
<path d="M41.9518 11.0388C42.3922 11.1095 43.0448 10.795 43.383 11.1724C43.6818 11.5027 43.4616 12.1239 43.4695 12.6193C43.4852 13.9561 43.4773 13.9561 42.1563 13.9561C41.6609 13.9561 41.1576 13.9483 40.6622 13.964C40.1432 13.9797 40.096 14.0348 40.0881 14.5695C40.0724 15.2458 40.0567 15.9299 40.0803 16.614C40.096 17.0229 39.9387 17.1723 39.5377 17.1645C38.885 17.1487 38.2324 17.1723 37.5718 17.1566C37.0292 17.1487 37.0292 17.133 37.0135 16.559C36.9978 15.9063 36.9978 15.2536 36.982 14.5931C36.9663 13.9797 36.9663 13.9719 36.3766 13.964C35.6452 13.9483 34.9139 13.9325 34.1748 13.9483C33.7501 13.9561 33.6243 13.7831 33.6322 13.39C33.6479 12.7609 33.6479 12.1318 33.6322 11.5027C33.6243 11.1646 33.758 11.0466 34.0961 11.0545C34.851 11.0702 35.6138 11.0702 36.3766 11.0545C36.9585 11.0466 36.9899 11.0073 36.9978 10.4254C37.0056 9.74127 37.0135 9.06501 36.9899 8.38088C36.9742 7.95625 37.1472 7.83829 37.5404 7.84616C38.193 7.86975 38.8457 7.84616 39.5062 7.85402C40.0488 7.86189 40.0567 7.87761 40.0724 8.44379C40.0882 9.09646 40.0724 9.74914 40.0803 10.4097C40.0882 11.0073 40.1117 11.023 40.6936 11.0388C41.0947 11.0545 41.4879 11.0388 41.9518 11.0388Z" fill="#20568D"/>
<path d="M22.5996 31.6177C23.3309 31.5941 24.0622 31.6098 24.7699 31.8614C26.1775 32.349 26.838 33.4106 27.011 34.8103C27.1919 36.21 27.3492 37.6097 27.129 39.033C27.0346 39.6228 27.0503 39.6463 26.5392 39.4419C24.2981 38.569 22.0491 37.7041 20.0597 36.3122C19.5643 35.9662 19.0924 35.5966 18.6678 35.172C17.7478 34.2677 17.9915 33.1196 19.0059 32.4512C19.8159 31.9165 20.7202 31.6806 21.6717 31.6177C21.9705 31.6019 22.285 31.6177 22.5996 31.6177Z" fill="#75A156"/>
<path d="M51.1209 39.3711C51.0895 39.3318 51.0344 39.2925 51.0344 39.2531C51.0187 37.6804 50.9322 36.1077 51.1288 34.5429C51.3332 32.8915 52.1589 32.003 53.7867 31.6648C54.8718 31.4368 55.9806 31.4525 57.0658 31.6648C57.6319 31.7749 58.1667 32.0108 58.6385 32.3489C59.6529 33.0803 59.7551 34.1025 58.9216 35.0383C58.1824 35.8718 57.2702 36.4852 56.3266 37.0592C54.7381 38.0422 53.0082 38.7341 51.2703 39.3868C51.231 39.4025 51.176 39.379 51.1209 39.3711Z" fill="#75A156"/>
<path d="M58.3082 27.0096C58.3318 27.8274 58.0801 28.6138 57.5375 29.2901C56.1614 31.02 53.5979 30.8628 52.4262 28.9834C51.6163 27.678 51.6792 25.893 52.5835 24.6977C53.3541 23.6833 54.3921 23.3138 55.6267 23.5182C56.8377 23.7148 57.6476 24.4225 58.0801 25.5706C58.2531 26.0188 58.316 26.4828 58.3082 27.0096Z" fill="#75A156"/>
<path d="M19.4385 26.9467C19.4385 26.1682 19.6036 25.4291 20.0676 24.7921C21.2078 23.1958 23.386 23.0149 24.7857 24.3832C26.1382 25.6964 26.2011 28.1734 24.8958 29.5181C23.96 30.4853 22.8119 30.6898 21.5695 30.2887C20.3506 29.8877 19.7766 28.9126 19.5092 27.7252C19.4542 27.4736 19.4621 27.2062 19.4385 26.9467Z" fill="#75A156"/>
<path d="M32.4289 46.0787C32.3975 46.0473 32.3581 46.008 32.3267 45.9686C31.6897 45.1666 30.9034 44.5296 30.062 43.9477C27.9703 42.4929 25.6427 41.5257 23.2836 40.6214H23.2286C23.1971 40.4956 23.1106 40.4642 22.9926 40.5113C21.8603 40.0081 20.7909 39.4026 19.745 38.7263C17.9521 37.5625 16.285 36.2729 15.019 34.5193C14.9168 34.3699 14.791 34.2284 14.6573 34.1025C13.8867 33.4263 12.8015 33.7644 12.5734 34.7552C12.5105 35.0304 12.5105 35.3293 12.5263 35.6123C12.5734 36.383 12.8251 37.0907 13.1789 37.7748C14.2956 39.9137 15.9076 41.5965 17.8578 42.9884C18.4947 43.4444 19.1631 43.8691 19.8551 44.3409C19.1867 44.5217 18.6677 44.2465 18.1487 44.0657C15.9233 43.2872 13.808 42.3278 12.1016 40.6057C10.3402 38.8285 9.18426 36.7368 8.48441 34.3542C7.97327 32.6321 7.77669 30.8706 7.5801 29.1013C7.45428 27.9533 7.20265 26.8366 6.69938 25.7751C6.2197 24.7842 5.44121 24.2259 4.34031 24.0687C3.56969 23.9586 3.52251 23.9664 3.52251 24.7292C3.52251 27.2455 3.4596 29.754 3.62473 32.2703C3.77414 34.4721 4.09655 36.6346 4.67058 38.7735C5.80294 43.0355 8.27209 46.3775 11.7556 48.9804C13.6822 50.4194 15.8447 51.4731 18.1172 52.2831C20.783 53.2346 23.5352 53.8872 26.2717 54.6107C26.6413 54.7129 27.0031 54.9095 27.412 54.8387C27.4827 54.8623 27.5614 54.8859 27.6321 54.9174C28.1511 55.1847 28.7173 55.2948 29.2835 55.3892L29.3307 55.397C29.3936 55.4914 29.4722 55.5228 29.5744 55.4599C29.6452 55.4993 29.7081 55.5464 29.7789 55.57C32.0357 56.2542 34.2061 57.1663 36.3056 58.2358C36.4393 58.3065 36.573 58.4166 36.8246 58.3065C36.6438 53.785 35.59 49.5623 32.4289 46.0787ZM29.1026 55.1139C29.1105 55.1139 29.1105 55.1139 29.1026 55.1139V55.1139Z" fill="url(#paint0_linear_953_3294)"/>
<path d="M73.8306 27.969C73.8228 26.7658 73.8071 25.5549 73.7992 24.3517C73.7992 24.0922 73.7913 23.8721 73.4296 23.9035C72.1164 24.0136 70.7875 24.5876 70.3078 26.121C69.9854 27.1433 69.7259 28.1891 69.6866 29.2743C69.6236 31.1458 69.3248 32.9702 68.7822 34.7631C68.2082 36.6661 67.2646 38.3646 65.9435 39.8587C64.245 41.7774 62.0904 42.9648 59.7156 43.8062C58.882 44.105 58.0485 44.4195 57.1363 44.4195C57.1285 44.4195 57.1049 44.4588 57.1049 44.4667C57.1363 44.5689 57.0027 44.4195 57.0813 44.4195C57.2622 44.3251 57.4194 44.2386 57.5846 44.16C60.0301 42.9254 62.0904 41.2348 63.6473 38.9622C64.418 37.8299 64.8505 36.5874 64.8426 35.2034C64.8347 34.6137 64.6696 34.1104 64.0877 33.8588C63.5373 33.6229 62.9396 33.7959 62.46 34.3149C62.2791 34.5114 62.1218 34.7159 61.9567 34.9203C60.384 36.8469 58.4967 38.396 56.3107 39.5677C55.6423 39.9216 54.9817 40.2911 54.3212 40.6529C54.2897 40.6843 54.2583 40.7158 54.2268 40.7472C54.2268 40.7551 54.2268 40.7551 54.2268 40.763C54.219 40.763 54.219 40.763 54.2111 40.7551L54.219 40.7472V40.7394C52.4811 41.392 50.7747 42.1234 49.1706 43.067C46.953 44.3723 45.0265 46.0315 43.7211 48.2805C42.1406 51.0013 41.3227 53.958 41.134 57.0955C41.1104 57.528 41.134 57.9605 41.134 58.511C41.5351 58.2829 41.8417 58.1021 42.1563 57.9291C42.2742 57.9291 42.3765 57.8976 42.4394 57.7954C42.5101 57.7561 42.5809 57.7168 42.6517 57.6774L42.7146 57.6932L42.746 57.6381C42.8168 57.6067 42.8876 57.5752 42.9584 57.5359C43.0213 57.5752 43.0606 57.5595 43.0763 57.4809C43.1392 57.4494 43.21 57.4101 43.2729 57.3786C43.3673 57.4179 43.438 57.4022 43.4774 57.3C43.5245 57.3079 43.5481 57.2921 43.5639 57.245C43.6346 57.2685 43.6897 57.2371 43.7133 57.1663C43.7762 57.1349 43.8391 57.1034 43.902 57.072C43.9963 57.1034 44.075 57.0877 44.1222 56.9933C44.2008 56.954 44.2716 56.9147 44.3502 56.8754C44.5311 56.8911 44.6883 56.836 44.7984 56.6866L44.8299 56.6709C44.9793 56.6709 45.1208 56.6473 45.2152 56.5136C45.2545 56.5294 45.286 56.5136 45.3017 56.4743C45.5612 56.4507 45.8207 56.4035 46.0094 56.1991L46.0566 56.207L46.0881 56.1755C46.2453 56.207 46.379 56.1598 46.4812 56.0418L46.5284 56.0497L46.5599 56.0182C46.8272 55.9946 47.0789 55.9396 47.2754 55.7352L47.3226 55.743L47.3541 55.7116C47.5114 55.743 47.645 55.7116 47.7473 55.5779L47.7944 55.5857L47.8259 55.5464C49.2335 55.1768 50.6253 54.7208 52.0014 54.2411C52.143 54.2489 52.2767 54.2096 52.3946 54.1389C53.7236 53.9029 55.0053 53.5098 56.2871 53.0773C56.4601 53.0222 56.6252 52.9593 56.7982 52.9043C57.1599 52.8492 57.5216 52.7549 57.8598 52.6133C58.4889 52.3774 59.1101 52.1494 59.7392 51.9135C61.8859 51.0878 63.9304 50.0813 65.7626 48.658C65.857 48.6186 65.9592 48.5872 66.0457 48.5321C67.7364 47.2268 69.2226 45.717 70.4179 43.9477C72.0613 41.51 72.9421 38.7892 73.4217 35.919C73.8306 33.2611 73.8385 30.6111 73.8306 27.969ZM68.4284 45.9844C68.4284 45.9844 68.4284 45.9922 68.4205 45.9922H68.4127C68.3969 46.0158 68.3891 46.0473 68.3812 46.0473C68.334 46.0315 68.3419 46.0158 68.4127 45.9922C68.4127 45.9922 68.4127 45.9844 68.4205 45.9844C68.4284 45.9844 68.4284 45.9844 68.4284 45.9844C68.4363 45.9608 68.452 45.9293 68.452 45.9293C68.507 45.9372 68.4992 45.9608 68.4284 45.9844Z" fill="url(#paint1_linear_953_3294)"/>
<path d="M54.2189 40.7472C54.211 40.7472 54.211 40.7472 54.2031 40.7394L54.211 40.7315C54.2189 40.7394 54.2189 40.7394 54.2189 40.7472Z" fill="#182D4F"/>
<path d="M68.4283 45.9844C68.4283 45.9844 68.4283 45.9922 68.4205 45.9922L68.4126 45.9844C68.4283 45.9844 68.4283 45.9844 68.4283 45.9844Z" fill="#182D4F"/>
<path d="M68.4282 45.9844C68.4361 45.9608 68.4518 45.9293 68.4518 45.9293C68.5069 45.9372 68.499 45.9608 68.4282 45.9844Z" fill="#182D4F"/>
<path d="M68.4205 46.0001C68.4048 46.0237 68.3969 46.0551 68.3891 46.0551C68.334 46.0394 68.3497 46.0158 68.4205 46.0001Z" fill="#182D4F"/>
<defs>
<linearGradient id="paint0_linear_953_3294" x1="26.5941" y1="48.4063" x2="35.48" y2="62.3248" gradientUnits="userSpaceOnUse">
<stop stop-color="#20568D"/>
<stop offset="1" stop-color="#091827"/>
</linearGradient>
<linearGradient id="paint1_linear_953_3294" x1="58.5596" y1="47.3841" x2="41.771" y2="57.3315" gradientUnits="userSpaceOnUse">
<stop offset="0.173783" stop-color="#20568D"/>
<stop offset="1" stop-color="#091827"/>
</linearGradient>
</defs>
</svg>
