<svg width="101" height="101" viewBox="0 0 101 101" fill="none" xmlns="http://www.w3.org/2000/svg">
<rect width="101" height="101" rx="22" fill="#2B8CFF"/>
<g clip-path="url(#clip0_4045_453)">
<path d="M87.3113 74.9072C87.1038 75.5392 86.9718 76.2095 86.6889 76.784C85.3689 79.5609 83.1814 81.0355 80.1264 81.0739C74.8274 81.1122 69.5284 81.093 64.2105 81.093C50.218 81.093 36.2067 81.093 22.2143 81.093C18.7067 81.093 15.8969 78.9289 15.1049 75.5966C14.954 74.9838 14.8975 74.3135 14.8975 73.6815C14.8975 57.9201 14.8975 42.1587 14.8975 26.4164C14.8975 22.1457 17.9713 19.0432 22.1766 19.024C29.5688 19.024 36.9799 19.024 44.3721 19.024C44.5607 19.024 44.7493 19.024 44.9379 19.0432C45.6545 19.1581 46.1636 19.7518 46.1636 20.4795C46.1448 21.169 45.6545 21.7627 44.9756 21.8584C44.7304 21.8967 44.4664 21.8776 44.2024 21.8776C36.9422 21.8776 29.6819 21.8776 22.4217 21.8776C19.4422 21.8967 17.7261 23.6586 17.7261 26.6845C17.7261 37.8305 17.7261 48.9956 17.7261 60.1416C17.7261 60.3714 17.7261 60.6204 17.7261 60.9077C39.9594 60.9077 62.1739 60.9077 84.4826 60.9077C84.4826 60.6778 84.4826 60.4289 84.4826 60.1799C84.4826 48.9765 84.4826 37.773 84.4826 26.5696C84.4826 23.6969 82.7288 21.8967 79.9002 21.8967C72.6211 21.8967 65.342 21.8967 58.044 21.8967C57.8177 21.8967 57.5726 21.9159 57.3463 21.8776C56.6297 21.801 56.0828 21.1881 56.0639 20.4795C56.0451 19.7518 56.6108 19.1198 57.3651 19.024C57.5914 19.0049 57.8366 19.0049 58.0629 19.0049C65.2288 19.0049 72.3948 19.0049 79.5607 19.0049C83.7283 19.0049 86.1986 20.9583 87.217 25.0758C87.2358 25.1141 87.2735 25.1524 87.3113 25.1907C87.3113 41.7756 87.3113 58.3414 87.3113 74.9072ZM17.7261 63.8761C17.7261 67.1892 17.7261 70.4066 17.7261 73.6432C17.7261 76.401 19.5176 78.2203 22.252 78.2203C41.4869 78.2203 60.7218 78.2203 79.9567 78.2203C82.6911 78.2203 84.4826 76.401 84.4826 73.6432C84.4826 70.5982 84.4826 67.5723 84.4826 64.5272C84.4826 64.3166 84.4637 64.1059 84.4449 63.8952C62.1927 63.8761 39.9971 63.8761 17.7261 63.8761Z" fill="white"/>
<path d="M43.8814 41.4305C43.8814 39.9942 43.8626 38.5578 43.8814 37.1215C43.9191 33.9232 47.0684 31.989 49.8405 33.5019C52.4051 34.9191 54.9321 36.4129 57.4213 37.945C60.0614 39.5728 60.0425 43.269 57.4024 44.916C54.9132 46.4673 52.3863 47.9419 49.8216 49.3591C47.0495 50.8912 43.9191 48.9186 43.8814 45.7204C43.8626 44.3032 43.8814 42.8668 43.8814 41.4305ZM46.7101 41.4497C46.7101 42.8094 46.7101 44.1691 46.7101 45.548C46.7101 46.8311 47.5964 47.3865 48.6713 46.7545C51.0474 45.3756 53.4046 43.9968 55.7618 42.5987C56.8179 41.9667 56.799 40.9134 55.743 40.2814C53.3857 38.8834 51.0285 37.5045 48.6524 36.1256C47.5964 35.5128 46.7101 36.049 46.6912 37.2938C46.7101 38.6727 46.7101 40.0516 46.7101 41.4497Z" fill="white"/>
<path d="M52.5182 20.4411C52.5182 21.2455 51.877 21.8966 51.1039 21.8966C50.3496 21.8775 49.7272 21.2455 49.7084 20.4794C49.6895 19.6942 50.3684 19.0239 51.1416 19.0239C51.8959 19.0431 52.5182 19.6751 52.5182 20.4411Z" fill="white"/>
<path d="M58.4585 69.5829C64.1158 69.5829 69.7731 69.5829 75.4304 69.5829C75.6567 69.5829 75.9019 69.5638 76.1282 69.6021C76.8636 69.6787 77.3916 70.2724 77.4105 71.0001C77.4294 71.747 76.8825 72.379 76.1282 72.4556C75.9019 72.4747 75.6567 72.4747 75.4304 72.4747C64.0781 72.4747 52.7257 72.4747 41.3545 72.4747C40.0533 72.4747 39.3933 72.0151 39.3744 71.0767C39.3555 70.1191 40.0344 69.6021 41.3733 69.6021C47.0684 69.5829 52.7634 69.5829 58.4585 69.5829Z" fill="white"/>
<path d="M24.798 70.9812C24.8168 68.6256 26.7215 66.7104 29.041 66.7104C31.3605 66.7104 33.2651 68.6639 33.2651 71.0195C33.2651 73.3942 31.3228 75.3476 28.9656 75.3285C26.6649 75.3093 24.7791 73.3559 24.798 70.9812ZM30.4365 71.0003C30.4365 70.2151 29.7576 69.564 28.9656 69.5831C28.2112 69.6023 27.6078 70.2534 27.6078 71.0195C27.6078 71.7855 28.2301 72.4175 28.9844 72.4366C29.7953 72.4558 30.4553 71.7855 30.4365 71.0003Z" fill="white"/>
</g>
<defs>
<clipPath id="clip0_4045_453">
<rect width="72.4138" height="62.069" fill="white" transform="translate(14.8975 19.0239)"/>
</clipPath>
</defs>
</svg>
