<svg width="257" height="61" viewBox="0 0 257 61" fill="none" xmlns="http://www.w3.org/2000/svg">
<path d="M0 22.2365C0.660538 21.6624 1.40757 21.34 2.09957 20.9311C5.53594 18.8787 8.98017 16.8185 12.4323 14.7897C18.2985 11.3376 24.1804 7.90121 30.0545 4.45697C32.4529 3.05726 34.867 1.689 37.2418 0.249976C37.8237 -0.103884 38.264 -0.0645662 38.8145 0.257839C41.2836 1.69687 43.7685 3.10444 46.2455 4.51202C47.9991 5.51069 49.7605 6.49363 51.5141 7.48444C51.6478 7.56307 51.7893 7.61812 51.9073 7.68103C52.1746 7.55521 52.0803 7.35076 52.0803 7.18562C52.0803 5.71514 52.0724 4.25252 52.0724 2.78204C52.0724 2.17654 52.0803 2.16868 52.67 2.18441C54.2899 2.23159 55.9177 2.31022 57.5376 2.34168C57.9701 2.34954 58.0566 2.51468 58.0487 2.90785C58.033 5.42419 58.0487 7.94052 58.0094 10.4569C58.0015 11.0781 58.1824 11.4398 58.7407 11.7543C63.8441 14.6481 68.9318 17.5734 74.0274 20.4829C74.688 20.8603 75.3485 21.2378 76.0012 21.6152C76.127 21.686 76.3 21.741 76.3 21.9455C76.0641 22.1185 75.8518 21.9455 75.6473 21.8747C71.4482 20.475 67.3434 18.8315 63.2937 17.0386C57.8993 14.6403 52.7487 11.7937 47.6295 8.86842C44.6256 7.15417 41.6453 5.40846 38.6651 3.65489C38.1697 3.36394 37.8158 3.3718 37.3204 3.66275C33.2235 6.10045 29.1187 8.52243 24.9903 10.9051C20.6104 13.4293 16.1281 15.7569 11.4965 17.8093C7.90286 19.3977 4.23845 20.8053 0.518993 22.0949C0.393177 22.15 0.220179 22.1814 0 22.2365Z" fill="#182D4F"/>
<path d="M54.2193 40.7315C54.2114 40.7315 54.2114 40.7394 54.2114 40.7394C54.2193 40.7394 54.2193 40.7394 54.2272 40.7472C54.2193 40.7394 54.2193 40.7394 54.2193 40.7315Z" fill="#20568D"/>
<path d="M38.7752 39.4497C38.6966 41.3213 38.6258 42.9726 38.5708 44.624C38.5629 44.9621 38.4843 45.2059 38.1933 45.426C37.7923 45.7249 37.4542 46.0866 37.0688 46.409C36.4319 46.9437 36.5105 46.9123 36.0702 46.3225C35.4018 45.4103 34.6311 44.5925 33.7976 43.8297C32.0362 42.2256 30.0231 41.0146 27.8292 40.1103C27.6247 40.0238 27.3967 40.0238 27.3888 39.6778C27.3259 37.6883 27.2001 35.6988 27.6719 33.7329C27.8056 33.1746 27.9707 32.6163 28.2774 32.1209C28.9537 31.0357 30.0467 30.6662 31.2262 30.5639C32.508 30.4538 33.7976 30.4696 35.0715 30.5718C36.8801 30.7212 37.8788 31.6334 38.445 33.3712C38.7831 34.4171 38.7988 35.4787 38.8303 36.5402C38.8617 37.5861 38.846 38.6319 38.7752 39.4497Z" fill="#20568D"/>
<path d="M39.4828 39.7643C39.4671 38.569 39.3413 36.8705 39.5457 35.1641C39.8131 33.0016 40.859 31.8064 43.218 31.4053C44.5391 31.1852 45.8838 31.1773 47.2048 31.4997C48.8719 31.9086 49.9807 32.8837 50.2559 34.6687C50.4997 36.2571 50.4682 37.8534 50.4839 39.4497C50.4839 39.7957 50.3109 39.9373 50.0121 40.071C48.4237 40.7708 46.9375 41.6515 45.5614 42.7131C44.2088 43.759 42.99 44.9464 42.0464 46.3854C41.8026 46.755 41.6453 46.7314 41.315 46.4955C39.7187 45.3789 39.7109 45.3867 39.6244 43.4759C39.5772 42.4143 39.5457 41.337 39.4828 39.7643Z" fill="#182D4F"/>
<path d="M29.1184 24.1552C29.1027 23.0307 29.3464 21.9534 29.9047 20.994C31.2651 18.6507 34.4341 18.5485 36.0069 20.7817C37.2336 22.5195 37.2808 25.5627 36.1091 27.3556C34.5442 29.754 31.3359 29.6596 29.9047 27.1748C29.3622 26.2311 29.1498 25.2167 29.1184 24.1552Z" fill="#20568D"/>
<path d="M48.6202 25.665C48.6202 26.6322 48.3686 27.5286 47.9282 28.3779C46.7172 30.7369 43.6662 30.7999 42.1406 28.9126C41.1813 27.7252 40.8589 26.3569 41.0319 24.8629C41.1734 23.589 41.6531 22.4959 42.7225 21.7096C44.1223 20.6795 46.0252 20.7974 47.252 22.0163C48.2664 23.0228 48.6202 24.2731 48.6202 25.665Z" fill="#182D4F"/>
<path d="M41.9518 11.0388C42.3922 11.1095 43.0448 10.795 43.383 11.1724C43.6818 11.5027 43.4616 12.1239 43.4695 12.6193C43.4852 13.9561 43.4773 13.9561 42.1563 13.9561C41.6609 13.9561 41.1576 13.9483 40.6622 13.964C40.1432 13.9797 40.096 14.0348 40.0881 14.5695C40.0724 15.2458 40.0567 15.9299 40.0803 16.614C40.096 17.0229 39.9387 17.1723 39.5377 17.1645C38.885 17.1487 38.2324 17.1723 37.5718 17.1566C37.0292 17.1487 37.0292 17.133 37.0135 16.559C36.9978 15.9063 36.9978 15.2536 36.982 14.5931C36.9663 13.9797 36.9663 13.9719 36.3766 13.964C35.6452 13.9483 34.9139 13.9325 34.1748 13.9483C33.7501 13.9561 33.6243 13.7831 33.6322 13.39C33.6479 12.7609 33.6479 12.1318 33.6322 11.5027C33.6243 11.1646 33.758 11.0466 34.0961 11.0545C34.851 11.0702 35.6138 11.0702 36.3766 11.0545C36.9585 11.0466 36.9899 11.0073 36.9978 10.4254C37.0056 9.74127 37.0135 9.06501 36.9899 8.38088C36.9742 7.95625 37.1472 7.83829 37.5404 7.84616C38.193 7.86975 38.8457 7.84616 39.5062 7.85402C40.0488 7.86189 40.0567 7.87761 40.0724 8.44379C40.0882 9.09646 40.0724 9.74914 40.0803 10.4097C40.0882 11.0073 40.1117 11.023 40.6936 11.0388C41.0947 11.0545 41.4879 11.0388 41.9518 11.0388Z" fill="#20568D"/>
<path d="M22.5996 31.6177C23.3309 31.5941 24.0622 31.6098 24.7699 31.8614C26.1775 32.349 26.838 33.4106 27.011 34.8103C27.1919 36.21 27.3492 37.6097 27.129 39.033C27.0346 39.6228 27.0503 39.6463 26.5392 39.4419C24.2981 38.569 22.0491 37.7041 20.0597 36.3122C19.5643 35.9662 19.0924 35.5966 18.6678 35.172C17.7478 34.2677 17.9915 33.1196 19.0059 32.4512C19.8159 31.9165 20.7202 31.6806 21.6717 31.6177C21.9705 31.6019 22.285 31.6177 22.5996 31.6177Z" fill="#75A156"/>
<path d="M51.1209 39.3711C51.0895 39.3318 51.0344 39.2925 51.0344 39.2531C51.0187 37.6804 50.9322 36.1077 51.1288 34.5429C51.3332 32.8915 52.1589 32.003 53.7867 31.6648C54.8718 31.4368 55.9806 31.4525 57.0658 31.6648C57.6319 31.7749 58.1667 32.0108 58.6385 32.3489C59.6529 33.0803 59.7551 34.1025 58.9216 35.0383C58.1824 35.8718 57.2702 36.4852 56.3266 37.0592C54.7381 38.0422 53.0082 38.7341 51.2703 39.3868C51.231 39.4025 51.176 39.379 51.1209 39.3711Z" fill="#75A156"/>
<path d="M58.3082 27.0096C58.3318 27.8274 58.0801 28.6138 57.5375 29.2901C56.1614 31.02 53.5979 30.8628 52.4262 28.9834C51.6163 27.678 51.6792 25.893 52.5835 24.6977C53.3541 23.6833 54.3921 23.3138 55.6267 23.5182C56.8377 23.7148 57.6476 24.4225 58.0801 25.5706C58.2531 26.0188 58.316 26.4828 58.3082 27.0096Z" fill="#75A156"/>
<path d="M19.4385 26.9467C19.4385 26.1682 19.6036 25.4291 20.0676 24.7921C21.2078 23.1958 23.386 23.0149 24.7857 24.3832C26.1382 25.6964 26.2011 28.1734 24.8958 29.5181C23.96 30.4853 22.8119 30.6898 21.5695 30.2887C20.3506 29.8877 19.7766 28.9126 19.5092 27.7252C19.4542 27.4736 19.4621 27.2062 19.4385 26.9467Z" fill="#75A156"/>
<path d="M32.4289 46.0787C32.3975 46.0473 32.3581 46.008 32.3267 45.9686C31.6897 45.1666 30.9034 44.5296 30.062 43.9477C27.9703 42.4929 25.6427 41.5257 23.2836 40.6214H23.2286C23.1971 40.4956 23.1106 40.4642 22.9926 40.5113C21.8603 40.0081 20.7909 39.4026 19.745 38.7263C17.9521 37.5625 16.285 36.2729 15.019 34.5193C14.9168 34.3699 14.791 34.2284 14.6573 34.1025C13.8867 33.4263 12.8015 33.7644 12.5734 34.7552C12.5105 35.0304 12.5105 35.3293 12.5263 35.6123C12.5734 36.383 12.8251 37.0907 13.1789 37.7748C14.2956 39.9137 15.9076 41.5965 17.8578 42.9884C18.4947 43.4444 19.1631 43.8691 19.8551 44.3409C19.1867 44.5217 18.6677 44.2465 18.1487 44.0657C15.9233 43.2872 13.808 42.3278 12.1016 40.6057C10.3402 38.8285 9.18426 36.7368 8.48441 34.3542C7.97327 32.6321 7.77669 30.8706 7.5801 29.1013C7.45428 27.9533 7.20265 26.8366 6.69938 25.7751C6.2197 24.7842 5.44121 24.2259 4.34031 24.0687C3.56969 23.9586 3.52251 23.9664 3.52251 24.7292C3.52251 27.2455 3.4596 29.754 3.62473 32.2703C3.77414 34.4721 4.09655 36.6346 4.67058 38.7735C5.80294 43.0355 8.27209 46.3775 11.7556 48.9804C13.6822 50.4194 15.8447 51.4731 18.1172 52.2831C20.783 53.2346 23.5352 53.8872 26.2717 54.6107C26.6413 54.7129 27.0031 54.9095 27.412 54.8387C27.4827 54.8623 27.5614 54.8859 27.6321 54.9174C28.1511 55.1847 28.7173 55.2948 29.2835 55.3892L29.3307 55.397C29.3936 55.4914 29.4722 55.5228 29.5744 55.4599C29.6452 55.4993 29.7081 55.5464 29.7789 55.57C32.0357 56.2542 34.2061 57.1663 36.3056 58.2358C36.4393 58.3065 36.573 58.4166 36.8246 58.3065C36.6438 53.785 35.59 49.5623 32.4289 46.0787ZM29.1026 55.1139C29.1105 55.1139 29.1105 55.1139 29.1026 55.1139V55.1139Z" fill="url(#paint0_linear_963_237)"/>
<path d="M73.8306 27.969C73.8228 26.7658 73.8071 25.5549 73.7992 24.3517C73.7992 24.0922 73.7913 23.8721 73.4296 23.9035C72.1164 24.0136 70.7875 24.5876 70.3078 26.121C69.9854 27.1433 69.7259 28.1891 69.6866 29.2743C69.6236 31.1458 69.3248 32.9702 68.7822 34.7631C68.2082 36.6661 67.2646 38.3646 65.9435 39.8587C64.245 41.7774 62.0904 42.9648 59.7156 43.8062C58.882 44.105 58.0485 44.4195 57.1363 44.4195C57.1285 44.4195 57.1049 44.4588 57.1049 44.4667C57.1363 44.5689 57.0027 44.4195 57.0813 44.4195C57.2622 44.3251 57.4194 44.2386 57.5846 44.16C60.0301 42.9254 62.0904 41.2348 63.6473 38.9622C64.418 37.8299 64.8505 36.5874 64.8426 35.2034C64.8347 34.6137 64.6696 34.1104 64.0877 33.8588C63.5373 33.6229 62.9396 33.7959 62.46 34.3149C62.2791 34.5114 62.1218 34.7159 61.9567 34.9203C60.384 36.8469 58.4967 38.396 56.3107 39.5677C55.6423 39.9216 54.9817 40.2911 54.3212 40.6529C54.2897 40.6843 54.2583 40.7158 54.2268 40.7472C54.2268 40.7551 54.2268 40.7551 54.2268 40.763C54.219 40.763 54.219 40.763 54.2111 40.7551L54.219 40.7472V40.7394C52.4811 41.392 50.7747 42.1234 49.1706 43.067C46.953 44.3723 45.0265 46.0315 43.7211 48.2805C42.1406 51.0013 41.3227 53.958 41.134 57.0955C41.1104 57.528 41.134 57.9605 41.134 58.511C41.5351 58.2829 41.8417 58.1021 42.1563 57.9291C42.2742 57.9291 42.3765 57.8976 42.4394 57.7954C42.5101 57.7561 42.5809 57.7168 42.6517 57.6774L42.7146 57.6932L42.746 57.6381C42.8168 57.6067 42.8876 57.5752 42.9584 57.5359C43.0213 57.5752 43.0606 57.5595 43.0763 57.4809C43.1392 57.4494 43.21 57.4101 43.2729 57.3786C43.3673 57.4179 43.438 57.4022 43.4774 57.3C43.5245 57.3079 43.5481 57.2921 43.5639 57.245C43.6346 57.2685 43.6897 57.2371 43.7133 57.1663C43.7762 57.1349 43.8391 57.1034 43.902 57.072C43.9963 57.1034 44.075 57.0877 44.1222 56.9933C44.2008 56.954 44.2716 56.9147 44.3502 56.8754C44.5311 56.8911 44.6883 56.836 44.7984 56.6866L44.8299 56.6709C44.9793 56.6709 45.1208 56.6473 45.2152 56.5136C45.2545 56.5294 45.286 56.5136 45.3017 56.4743C45.5612 56.4507 45.8207 56.4035 46.0094 56.1991L46.0566 56.207L46.0881 56.1755C46.2453 56.207 46.379 56.1598 46.4812 56.0418L46.5284 56.0497L46.5599 56.0182C46.8272 55.9946 47.0789 55.9396 47.2754 55.7352L47.3226 55.743L47.3541 55.7116C47.5114 55.743 47.645 55.7116 47.7473 55.5779L47.7944 55.5857L47.8259 55.5464C49.2335 55.1768 50.6253 54.7208 52.0014 54.2411C52.143 54.2489 52.2767 54.2096 52.3946 54.1389C53.7236 53.9029 55.0053 53.5098 56.2871 53.0773C56.4601 53.0222 56.6252 52.9593 56.7982 52.9043C57.1599 52.8492 57.5216 52.7549 57.8598 52.6133C58.4889 52.3774 59.1101 52.1494 59.7392 51.9135C61.8859 51.0878 63.9304 50.0813 65.7626 48.658C65.857 48.6186 65.9592 48.5872 66.0457 48.5321C67.7364 47.2268 69.2226 45.717 70.4179 43.9477C72.0613 41.51 72.9421 38.7892 73.4217 35.919C73.8306 33.2611 73.8385 30.6111 73.8306 27.969ZM68.4284 45.9844C68.4284 45.9844 68.4284 45.9922 68.4205 45.9922H68.4127C68.3969 46.0158 68.3891 46.0473 68.3812 46.0473C68.334 46.0315 68.3419 46.0158 68.4127 45.9922C68.4127 45.9922 68.4127 45.9844 68.4205 45.9844C68.4284 45.9844 68.4284 45.9844 68.4284 45.9844C68.4363 45.9608 68.452 45.9293 68.452 45.9293C68.507 45.9372 68.4992 45.9608 68.4284 45.9844Z" fill="url(#paint1_linear_963_237)"/>
<path d="M54.2189 40.7472C54.211 40.7472 54.211 40.7472 54.2031 40.7394L54.211 40.7315C54.2189 40.7394 54.2189 40.7394 54.2189 40.7472Z" fill="#182D4F"/>
<path d="M68.4283 45.9844C68.4283 45.9844 68.4283 45.9922 68.4205 45.9922L68.4126 45.9844C68.4283 45.9844 68.4283 45.9844 68.4283 45.9844Z" fill="#182D4F"/>
<path d="M68.4282 45.9844C68.4361 45.9608 68.4518 45.9293 68.4518 45.9293C68.5069 45.9372 68.499 45.9608 68.4282 45.9844Z" fill="#182D4F"/>
<path d="M68.4205 46.0001C68.4048 46.0237 68.3969 46.0551 68.3891 46.0551C68.334 46.0394 68.3497 46.0158 68.4205 46.0001Z" fill="#182D4F"/>
<path d="M164.902 33.3054C164.371 33.6878 163.829 34.0578 163.311 34.4524C161.362 35.8954 159.216 36.8697 156.786 37.1904C153.641 37.5974 151.434 36.3887 150.126 33.5521C149.658 33.5644 149.448 33.9714 149.152 34.2304C147.869 35.3404 146.488 36.2777 144.786 36.6477C142.221 37.2027 140.728 36.1791 140.358 33.6014C140.321 33.3671 140.408 33.0711 140.099 32.9848C139.816 32.8984 139.655 33.1451 139.483 33.3054C138.582 34.1564 137.645 34.9458 136.548 35.5377C135.561 36.0804 134.525 36.4381 133.378 36.3887C131.565 36.3147 130.689 35.4884 130.554 33.6631C130.541 33.5028 130.529 33.3548 130.504 33.0341C129.912 33.4904 129.407 33.8851 128.901 34.2551C127.84 35.0321 126.792 35.8337 125.497 36.2037C124.609 36.4504 123.721 36.5614 122.821 36.4134C121.119 36.1421 119.959 34.8594 119.836 33.1451C119.725 31.7021 120.033 30.3331 120.749 29.1122C122.87 25.4492 125.818 22.6742 129.801 21.0956C131.392 20.4666 133.045 20.2199 134.759 20.3433C135.98 20.4419 137.09 20.8366 138.027 21.6382C138.989 22.4522 139.285 23.7102 138.792 24.7462C138.681 24.9682 138.607 25.2025 138.373 25.3382C138.04 25.5479 137.756 25.6095 137.621 25.1409C137.596 25.0669 137.596 24.9805 137.584 24.8942C137.559 22.2919 134.883 21.4409 132.737 22.3412C131.898 22.6866 131.109 23.1182 130.393 23.6732C128.223 25.3629 126.459 27.3978 125.09 29.7781C124.597 30.6415 124.202 31.5418 124.128 32.5531C124.005 34.2551 124.843 34.8471 126.385 34.1564C126.915 33.9221 127.384 33.5891 127.84 33.2314C129.037 32.2818 130.085 31.1965 131.059 30.0125C132.071 28.7792 133.144 27.5828 134.18 26.3619C134.759 25.6712 135.487 25.5725 136.301 25.7945C137.793 26.2015 138.015 26.7442 137.177 28.0268C136.523 29.0258 135.906 30.0371 135.413 31.1348C135.179 31.6528 135.006 32.2078 134.846 32.7628C134.722 33.1944 134.587 33.6631 135.055 33.9961C135.499 34.3168 135.931 34.1071 136.326 33.8851C136.794 33.6261 137.263 33.3548 137.658 33.0094C138.78 32.0351 139.816 30.9868 140.778 29.8521C140.987 29.5931 141.172 29.3341 141.296 29.0258C143.368 23.6855 146.266 18.7523 149.127 13.819C150.385 11.6483 151.779 9.56403 153.148 7.46739C153.974 6.19707 154.751 5.99973 155.911 6.67806C157.033 7.34405 157.391 8.42938 156.725 9.6257C155.837 11.192 154.825 12.6967 153.876 14.2383C151.273 18.4316 148.77 22.6742 146.525 27.0648C145.773 28.5325 145.193 30.0618 144.724 31.6528C144.552 32.2448 144.441 32.8614 144.502 33.4781C144.601 34.4771 145.205 34.8594 146.13 34.4894C147.142 34.0824 147.956 33.4041 148.733 32.6518C149.571 31.8501 150.25 31.0238 150.521 29.8028C150.928 27.9652 152.1 26.4728 153.333 25.0792C155.06 23.1429 157.119 21.6876 159.611 20.8736C160.634 20.5406 161.707 20.4296 162.78 20.5529C164.939 20.7996 166.098 22.5139 165.543 24.6105C165.235 25.7945 164.544 26.7565 163.681 27.6075C161.448 29.8028 158.735 30.9375 155.639 31.2211C154.677 31.3075 154.653 31.3075 154.529 32.2818C154.48 32.6518 154.455 33.0218 154.492 33.3918C154.591 34.5758 155.269 35.2541 156.441 35.4021C157.021 35.4761 157.588 35.3774 158.155 35.2417C160.375 34.7114 162.201 33.4658 163.915 32.0351C164.544 31.5048 165.111 30.9128 165.703 30.3331C166.678 29.3712 167.442 28.2735 167.899 26.9662C168.602 24.9559 169.489 22.9949 169.748 20.8489C169.785 20.5036 169.983 20.3679 170.279 20.2569C171.13 19.9363 171.981 19.9733 172.807 20.2939C173.621 20.6269 173.917 21.2189 173.781 22.1932C173.596 23.4759 173.004 24.6105 172.449 25.7575C172.203 26.2632 171.907 26.7442 171.87 27.3485C172.437 26.4235 173.35 25.8562 174.04 25.0669C175.237 23.6855 176.655 22.5756 178.197 21.6136C178.789 21.2436 179.43 20.9599 180.121 20.8119C181.761 20.4666 182.871 21.3176 182.994 22.9826C183.031 23.5252 182.933 24.0432 182.797 24.5612C182.772 24.6352 182.735 24.6845 182.674 24.7339C182.587 24.8079 182.563 24.8942 182.6 25.0052C182.563 25.3629 182.427 25.6835 182.254 25.9919C181.86 26.5345 181.551 27.1265 181.342 27.9528C182.032 27.6815 182.267 27.2128 182.55 26.8058C182.994 26.3495 183.438 25.9055 183.87 25.4492C183.969 25.4492 184.018 25.3999 184.018 25.3012C184.141 25.1779 184.265 25.0669 184.376 24.9435L184.462 24.9312L184.487 24.8449C185.646 23.5869 187.04 22.6619 188.544 21.8849C188.803 21.7492 189.075 21.6382 189.346 21.5642C190.481 21.2806 191.591 21.3052 192.417 22.2549C193.243 23.2046 193.169 24.3022 192.651 25.3752C191.8 27.1018 190.9 28.8162 190.037 30.5428C189.63 31.3568 189.26 32.1831 189.149 33.0958C189.001 34.2304 189.531 34.6744 190.592 34.2304C192.146 33.5768 193.268 32.3558 194.378 31.1471C194.526 30.9868 194.538 30.6908 194.612 30.4565C196.129 25.7822 199.188 22.5632 203.751 20.7872C204.75 20.3926 205.835 20.2939 206.908 20.3802C209.141 20.5529 210.423 21.8849 210.534 24.1172C210.547 24.2775 210.534 24.4502 210.547 24.6105C210.571 25.6835 210.954 26.0782 212.002 26.1645C213.235 26.2632 213.914 25.8562 214.333 24.6845C214.765 23.4882 215.283 22.3166 215.344 21.0216C215.369 20.6146 215.566 20.4296 215.936 20.3679C216.257 20.3186 216.59 20.2323 216.911 20.2199C218.798 20.1213 219.649 21.1572 219.168 23.0072C218.835 24.2775 218.28 25.4739 217.749 26.6825C217.589 27.0525 217.404 27.4102 217.157 27.8912C217.651 27.8418 217.799 27.5458 217.996 27.3362C219.624 25.6465 221.264 23.9815 223.225 22.6742C223.842 22.2672 224.483 21.9096 225.186 21.6629C225.495 21.5519 225.815 21.4656 226.136 21.4162C228.677 20.9722 230.403 22.8222 229.799 25.3382C229.577 26.2632 229.121 27.1018 228.652 27.9158C227.986 29.0505 227.357 30.1975 226.814 31.4061C226.605 31.8625 226.469 32.3311 226.457 32.8368C226.432 33.8604 227.024 34.3661 228.023 34.1688C228.59 34.0578 229.121 33.8234 229.614 33.5274C231.254 32.5531 232.611 31.2458 233.893 29.8398C234.029 29.6918 234.128 29.5068 234.202 29.3095C235.016 26.9292 236.163 24.6969 237.125 22.3906C237.174 22.2796 237.186 22.1562 237.248 21.8849C236.57 21.8849 235.941 21.8726 235.312 21.8849C234.72 21.8972 234.165 21.7862 233.659 21.4656C233.449 21.3422 233.24 21.1819 233.104 20.9969C232.907 20.7256 232.833 20.3802 233.005 20.0719C233.178 19.7513 233.511 19.8499 233.782 19.9239C234.991 20.2569 236.224 20.1213 237.458 20.1089C238.087 20.1089 238.42 19.8623 238.654 19.2949C239.443 17.3216 240.356 15.373 240.627 13.227C240.689 12.7707 240.923 12.4993 241.355 12.339C242.231 12.006 243.131 11.9567 244.019 12.1787C245.166 12.4623 245.61 13.2517 245.314 14.411C244.969 15.7676 244.377 17.038 243.809 18.3206C243.6 18.8016 243.39 19.2826 243.205 19.7143C243.415 20.0842 243.674 19.9733 243.908 19.9609C245.425 19.8746 246.942 19.7883 248.459 19.6896C248.669 19.6773 248.891 19.6403 248.977 19.8869C249.063 20.1213 248.891 20.2692 248.718 20.3926C248.175 20.7996 247.534 20.9476 246.88 21.0709C245.499 21.3052 244.13 21.5396 242.749 21.7492C242.366 21.8109 242.07 21.9096 241.873 22.3042C240.356 25.3135 238.728 28.2735 237.963 31.5911C237.865 32.0351 237.754 32.4791 237.729 32.9231C237.606 34.5758 238.432 35.2294 239.998 34.7361C241.392 34.2921 242.613 33.5398 243.698 32.5901C244.599 31.8131 245.462 30.9868 246.202 30.0495C246.35 29.8521 246.523 29.6671 246.708 29.5068C246.88 29.3588 247.09 29.3588 247.275 29.4821C247.46 29.6055 247.522 29.7905 247.485 30.0125C247.423 30.3455 247.238 30.6168 247.028 30.8758C245.302 33.0958 243.365 35.0938 240.775 36.3271C239.998 36.6971 239.184 36.9931 238.321 37.1287C235.743 37.5234 233.893 36.1297 233.536 33.5521C233.499 33.2684 233.462 32.9848 233.425 32.6641C232.796 32.7011 232.475 33.1698 232.08 33.4904C230.736 34.5881 229.33 35.5748 227.628 36.0557C226.95 36.2531 226.272 36.4011 225.569 36.3887C223.028 36.3641 221.462 34.3044 222.177 31.8625C222.621 30.3208 223.324 28.8778 224.138 27.4842C224.533 26.8058 224.878 26.1029 225.186 25.3999C225.334 25.0792 225.458 24.6722 225.149 24.3639C224.829 24.0555 224.434 24.2035 224.113 24.3762C223.571 24.6599 223.016 24.9435 222.522 25.3135C219.094 27.9158 216.405 31.1348 214.506 35.0074C214.271 35.4884 214.111 35.9941 213.975 36.5121C213.864 36.9191 213.63 37.0177 213.26 37.0177C211.373 37.0424 210.238 35.6364 210.769 33.8604C211.028 32.9971 211.41 32.1708 211.755 31.3321C212.199 30.2345 212.668 29.1368 213.124 28.0268C213.174 27.9158 213.161 27.7925 213.174 27.5952C212.31 27.4965 211.459 27.7185 210.608 27.5952C210.164 27.5335 210.115 27.9282 210.004 28.2365C209.585 29.4452 208.993 30.5798 208.277 31.6281C206.847 33.7371 205.034 35.4514 202.666 36.4874C201.247 37.1041 199.755 37.4001 198.214 37.1041C196.425 36.7587 195.155 35.7721 194.575 33.9838C194.526 33.8358 194.464 33.6754 194.403 33.5274C194.39 33.5028 194.341 33.4781 194.304 33.4534C193.872 33.4534 193.7 33.8358 193.441 34.0701C192.343 35.0074 191.196 35.8707 189.778 36.2777C189.05 36.4874 188.335 36.5737 187.582 36.4751C186.25 36.2777 185.338 35.4391 185.054 34.1318C184.832 33.1328 185.005 32.1708 185.338 31.2211C185.769 30.0248 186.287 28.8532 186.953 27.7678C187.422 27.0032 187.854 26.2015 188.137 25.3382C188.211 25.1162 188.359 24.8572 188.15 24.6475C187.878 24.3885 187.607 24.5859 187.36 24.7092C186.485 25.1655 185.658 25.7205 184.955 26.4112C182.267 29.0505 179.874 31.8871 178.665 35.5501C178.505 36.0187 178.271 36.1914 177.79 36.2037C175.792 36.2777 174.62 34.7731 175.286 32.8738C175.816 31.3568 176.569 29.9385 177.284 28.5078C177.851 27.3732 178.431 26.2262 178.789 25.0052C178.9 24.6105 179.22 24.0802 178.739 23.7719C178.357 23.5252 177.962 23.8829 177.617 24.0925C176.766 24.6105 176.026 25.2519 175.348 25.9795C172.819 28.6558 170.562 31.5048 169.181 34.9704C169.045 35.3158 168.873 35.6488 168.799 36.0064C168.626 36.8821 168.54 36.9561 167.516 36.9067C165.74 36.8081 165.05 35.9694 165.222 34.1811C165.235 34.0578 165.222 33.9344 165.222 33.8111C165.346 33.6014 165.518 33.3671 165.333 33.1574C165.148 32.9231 165 33.1204 164.902 33.3054ZM198.917 33.1081C198.892 35.0691 200.002 35.8091 201.802 35.0198C202.604 34.6621 203.258 34.0948 203.862 33.4781C205.638 31.6651 206.921 29.5315 207.907 27.2005C208.327 26.2139 208.561 25.1655 208.549 24.0802C208.536 22.6126 207.488 21.9466 206.119 22.5262C205.428 22.8099 204.787 23.1676 204.232 23.6732C202.357 25.3752 200.816 27.3362 199.817 29.6795C199.36 30.7648 198.929 31.8871 198.917 33.1081ZM155.442 29.8275C155.948 30.0125 156.281 29.8275 156.626 29.7041C158.821 28.9025 160.684 27.5952 162.213 25.8315C162.731 25.2395 163.089 24.5489 163.397 23.8335C163.607 23.3649 163.718 22.8716 163.335 22.4522C162.953 22.0082 162.447 22.1192 161.966 22.2919C161.066 22.6126 160.264 23.0936 159.561 23.7472C157.748 25.4369 156.416 27.4718 155.442 29.8275Z" fill="#182D4F"/>
<path d="M94.7751 23.8705C94.6517 24.1912 94.4174 24.2652 94.1584 24.2899C91.7904 24.5119 89.6568 23.9322 87.8808 22.3289C86.1295 20.7626 85.7472 18.6906 86.1418 16.4706C86.5488 14.2013 87.6095 12.2033 89.0401 10.4273C92.3578 6.29571 96.6621 3.87841 101.941 3.29875C103.754 3.10142 105.542 3.17541 107.269 3.90307C109.328 4.77873 110.537 6.30805 110.969 8.47869C111.351 10.3533 111.339 12.2403 111.191 14.1273C110.895 17.5683 110.352 20.9722 109.637 24.3515C109.119 26.8058 108.49 29.2231 107.922 31.6651C107.774 32.3311 107.713 33.0094 107.626 33.6631C108.218 33.8234 108.44 33.4658 108.712 33.2314C109.945 32.2078 111.006 30.9991 112.054 29.7905C113.99 27.5458 115.68 25.1285 117.332 22.6742C119.491 19.4799 121.6 16.2363 123.462 12.857C124.572 10.8467 125.583 8.77469 126.41 6.62871C126.792 5.62972 127.15 4.63073 127.236 3.54541C127.31 2.66975 127.754 2.17642 128.593 2.05309C129.801 1.86809 130.899 2.15176 131.688 3.13842C132.441 4.07574 132.206 5.07473 131.75 6.03672C130.381 8.84869 128.593 11.414 126.829 13.9916C122.512 20.3186 117.887 26.4358 112.93 32.3188C111.77 33.7001 110.512 35.0074 109.254 36.3024C108.366 37.215 107.343 37.9797 106.097 38.399C105.53 38.5964 104.975 38.6334 104.395 38.5347C103.223 38.3374 102.619 37.6097 102.594 36.401C102.582 35.3651 102.853 34.3661 103.063 33.3671C104.074 28.5078 105.234 23.6732 105.937 18.7399C106.331 15.9773 106.751 13.2146 106.677 10.4027C106.652 9.45301 106.541 8.51568 106.307 7.60303C105.838 5.80238 104.654 4.8404 102.594 4.8404C100.744 4.8404 99.0177 5.48172 97.5254 6.54238C93.7144 9.23101 91.4328 12.9063 90.6681 17.5189C90.4955 18.5426 90.5941 19.5662 90.7915 20.5776C91.0998 22.1932 92.0371 23.2045 93.6774 23.5499C94.0351 23.6239 94.4421 23.4759 94.7751 23.8705Z" fill="#182D4F"/>
<path d="M108.596 58.1732C107.758 58.1732 107.023 58 106.392 57.6537C105.76 57.3074 105.27 56.8206 104.92 56.1934C104.57 55.5624 104.394 54.8217 104.394 53.9713C104.394 53.3518 104.496 52.7861 104.7 52.2744C104.908 51.7588 105.201 51.3124 105.578 50.9353C105.959 50.5544 106.405 50.2619 106.917 50.058C107.432 49.8502 107.998 49.7463 108.614 49.7463C109.249 49.7463 109.791 49.8271 110.241 49.9887C110.692 50.1465 111.092 50.3716 111.442 50.664L110.674 51.8934C110.428 51.6587 110.139 51.4856 109.808 51.374C109.481 51.2585 109.118 51.2008 108.718 51.2008C108.29 51.2008 107.908 51.2643 107.569 51.3913C107.23 51.5183 106.942 51.703 106.703 51.9454C106.465 52.1839 106.282 52.4725 106.155 52.8111C106.028 53.1498 105.964 53.5307 105.964 53.954C105.964 54.535 106.078 55.0314 106.305 55.4431C106.532 55.851 106.855 56.1646 107.275 56.3839C107.694 56.6032 108.192 56.7129 108.769 56.7129C109.158 56.7129 109.537 56.6532 109.907 56.534C110.28 56.4147 110.632 56.2242 110.963 55.9626L111.655 57.2266C111.271 57.5267 110.824 57.7595 110.316 57.925C109.812 58.0904 109.239 58.1732 108.596 58.1732ZM113.015 58L116.114 49.9195H117.788L120.951 58H119.26L118.573 56.1703H115.323L114.66 58H113.015ZM115.693 54.8948H118.192L116.922 51.6164L115.693 54.8948ZM123.047 58V49.9195H126.175C126.749 49.9195 127.247 50.0176 127.67 50.2138C128.094 50.4062 128.421 50.6833 128.652 51.045C128.882 51.4067 128.998 51.8376 128.998 52.3379C128.998 52.738 128.915 53.0901 128.75 53.3941C128.584 53.6981 128.355 53.9501 128.063 54.1502C127.774 54.3503 127.439 54.4907 127.059 54.5715L129.408 58H127.607L125.517 54.8371H124.548V58H123.047ZM124.548 53.6077H125.956C126.437 53.6077 126.812 53.5076 127.082 53.3075C127.351 53.1036 127.486 52.8073 127.486 52.4187C127.486 52.0146 127.363 51.7068 127.116 51.4952C126.87 51.2835 126.508 51.1777 126.031 51.1777H124.548V53.6077ZM131.784 58V49.9195H137.158V51.2354H133.285V53.1921H136.598V54.4215H133.285V56.6725H137.198V58H131.784ZM143.678 58V49.9195H146.806C147.38 49.9195 147.878 50.0176 148.301 50.2138C148.725 50.4062 149.052 50.6833 149.283 51.045C149.513 51.4067 149.629 51.8376 149.629 52.3379C149.629 52.738 149.546 53.0901 149.381 53.3941C149.215 53.6981 148.986 53.9501 148.694 54.1502C148.405 54.3503 148.071 54.4907 147.69 54.5715L150.039 58H148.238L146.149 54.8371H145.179V58H143.678ZM145.179 53.6077H146.587C147.068 53.6077 147.443 53.5076 147.713 53.3075C147.982 53.1036 148.117 52.8073 148.117 52.4187C148.117 52.0146 147.994 51.7068 147.747 51.4952C147.501 51.2835 147.139 51.1777 146.662 51.1777H145.179V53.6077ZM152.415 58V49.9195H157.789V51.2354H153.916V53.1921H157.229V54.4215H153.916V56.6725H157.829V58H152.415ZM164.255 58.1732C163.416 58.1732 162.681 58 162.05 57.6537C161.419 57.3074 160.928 56.8206 160.578 56.1934C160.228 55.5624 160.053 54.8217 160.053 53.9713C160.053 53.3518 160.155 52.7861 160.359 52.2744C160.566 51.7588 160.859 51.3124 161.236 50.9353C161.617 50.5544 162.063 50.2619 162.575 50.058C163.091 49.8502 163.656 49.7463 164.272 49.7463C164.907 49.7463 165.449 49.8271 165.9 49.9887C166.35 50.1465 166.75 50.3716 167.1 50.664L166.332 51.8934C166.086 51.6587 165.798 51.4856 165.467 51.374C165.14 51.2585 164.776 51.2008 164.376 51.2008C163.949 51.2008 163.566 51.2643 163.227 51.3913C162.889 51.5183 162.6 51.703 162.361 51.9454C162.123 52.1839 161.94 52.4725 161.813 52.8111C161.686 53.1498 161.623 53.5307 161.623 53.954C161.623 54.535 161.736 55.0314 161.963 55.4431C162.19 55.851 162.513 56.1646 162.933 56.3839C163.352 56.6032 163.851 56.7129 164.428 56.7129C164.816 56.7129 165.195 56.6532 165.565 56.534C165.938 56.4147 166.29 56.2242 166.621 55.9626L167.314 57.2266C166.929 57.5267 166.482 57.7595 165.975 57.925C165.47 58.0904 164.897 58.1732 164.255 58.1732ZM169.596 58V49.9195H172.725C173.298 49.9195 173.796 50.0176 174.219 50.2138C174.643 50.4062 174.97 50.6833 175.201 51.045C175.432 51.4067 175.547 51.8376 175.547 52.3379C175.547 52.738 175.464 53.0901 175.299 53.3941C175.133 53.6981 174.904 53.9501 174.612 54.1502C174.323 54.3503 173.989 54.4907 173.608 54.5715L175.957 58H174.156L172.067 54.8371H171.097V58H169.596ZM171.097 53.6077H172.505C172.986 53.6077 173.361 53.5076 173.631 53.3075C173.9 53.1036 174.035 52.8073 174.035 52.4187C174.035 52.0146 173.912 51.7068 173.665 51.4952C173.419 51.2835 173.057 51.1777 172.58 51.1777H171.097V53.6077ZM181.555 58.1732C180.824 58.1732 180.211 58.025 179.714 57.7287C179.222 57.4324 178.85 57.0303 178.6 56.5224C178.35 56.0107 178.225 55.4335 178.225 54.7909V49.9195H179.726V54.8082C179.726 55.4623 179.889 55.951 180.216 56.2742C180.543 56.5975 180.99 56.7591 181.555 56.7591C182.121 56.7591 182.565 56.5975 182.889 56.2742C183.216 55.951 183.379 55.4623 183.379 54.8082V49.9195H184.886V54.7909C184.886 55.4335 184.761 56.0107 184.511 56.5224C184.26 57.0303 183.889 57.4324 183.397 57.7287C182.904 58.025 182.29 58.1732 181.555 58.1732ZM187.86 58V49.9195H189.36V58H187.86ZM193.875 58V51.2932H191.642V49.9195H197.616V51.2932H195.382V58H193.875ZM199.9 58V49.9195H201.349L204.569 55.1949L203.981 55.2007L207.069 49.9195H208.5V58H207.04L207.063 51.8819L207.34 51.98L204.731 56.3319H203.675L201.002 51.98L201.251 51.8819L201.274 58H199.9ZM211.523 58V49.9195H216.897V51.2354H213.024V53.1921H216.337V54.4215H213.024V56.6725H216.937V58H211.523ZM219.663 58V49.9195H221.117L224.944 55.4835V49.9195H226.404V58H224.95L221.123 52.3667V58H219.663ZM230.92 58V51.2932H228.687V49.9195H234.661V51.2932H232.427V58H230.92Z" fill="#56773F"/>
<path d="M238.641 53.8358C238.641 54.3567 238.641 54.8775 238.641 55.3983C238.947 55.3853 239.253 55.3723 239.559 55.3593C245.066 55.1249 250.574 54.8905 256.082 54.6562C256.388 54.6431 256.694 54.6301 257 54.6171C256.694 54.6041 256.388 54.5911 256.082 54.578C250.574 54.3437 245.066 54.1093 239.559 53.8749C239.253 53.8619 238.947 53.8489 238.641 53.8358Z" fill="#56773F"/>
<path d="M100.359 54.4218C100.359 54.9427 100.359 55.4635 100.359 55.9843C100.053 55.9713 99.7474 55.9583 99.4414 55.9453C93.9336 55.7109 88.4258 55.4765 82.918 55.2422C82.612 55.2291 82.306 55.2161 82 55.2031C82.306 55.1901 82.612 55.1771 82.918 55.164C88.4258 54.9297 93.9336 54.6953 99.4414 54.4609C99.7474 54.4479 100.053 54.4349 100.359 54.4218Z" fill="#56773F"/>
<defs>
<linearGradient id="paint0_linear_963_237" x1="26.5941" y1="48.4063" x2="35.48" y2="62.3248" gradientUnits="userSpaceOnUse">
<stop stop-color="#20568D"/>
<stop offset="1" stop-color="#091827"/>
</linearGradient>
<linearGradient id="paint1_linear_963_237" x1="58.5596" y1="47.3841" x2="41.771" y2="57.3315" gradientUnits="userSpaceOnUse">
<stop offset="0.173783" stop-color="#20568D"/>
<stop offset="1" stop-color="#091827"/>
</linearGradient>
</defs>
</svg>
