<svg width="209" height="195" viewBox="0 0 209 195" fill="none" xmlns="http://www.w3.org/2000/svg">
<g filter="url(#filter0_d_8676_252)">
<path d="M34.5615 34.5612C34.5615 27.1728 37.4966 20.087 42.721 14.8626C47.9454 9.63817 55.0312 6.70313 62.4196 6.70312H145.994C160.771 6.70313 174.942 12.5732 185.391 23.022C195.84 33.4708 201.71 47.6425 201.71 62.4193V104.207C201.71 111.595 198.775 118.681 193.551 123.905C188.326 129.13 181.24 132.065 173.852 132.065H97.2423C80.6183 132.065 64.6752 125.461 52.9203 113.706C41.1654 101.951 34.5615 86.0078 34.5615 69.3839V34.5612Z" fill="#2B8CFF"/>
</g>
<g filter="url(#filter1_d_8676_252)">
<path d="M6.70312 62.4187C6.70312 55.0302 9.63817 47.9444 14.8626 42.72C20.087 37.4956 27.1728 34.5605 34.5612 34.5605H145.994C153.382 34.5605 160.468 37.4956 165.692 42.72C170.917 47.9444 173.852 55.0302 173.852 62.4187V132.064C173.852 139.452 170.917 146.538 165.692 151.763C160.468 156.987 153.382 159.922 145.994 159.922H91.2943L56.6806 185.092C54.6024 186.603 52.1468 187.509 49.5854 187.711C47.0241 187.913 44.4568 187.403 42.1674 186.236C39.8781 185.07 37.9559 183.293 36.6135 181.103C35.2712 178.912 34.5609 176.393 34.5612 173.823V159.922C27.1728 159.922 20.087 156.987 14.8626 151.763C9.63817 146.538 6.70313 139.452 6.70312 132.064V62.4187Z" fill="white"/>
</g>
<g filter="url(#filter2_d_8676_252)">
<path d="M22.9365 71.4672C22.9365 65.5676 25.2904 59.9096 29.4804 55.7379C33.6704 51.5663 39.3533 49.2227 45.2789 49.2227H134.648C140.574 49.2227 146.257 51.5663 150.447 55.7379C154.637 59.9096 156.991 65.5676 156.991 71.4672V127.079C156.991 132.978 154.637 138.636 150.447 142.808C146.257 146.98 140.574 149.323 134.648 149.323H90.779L63.0187 169.421C61.3519 170.627 59.3826 171.351 57.3283 171.513C55.2741 171.674 53.2151 171.266 51.3791 170.335C49.543 169.404 48.0014 167.985 46.9248 166.236C45.8482 164.486 45.2786 162.475 45.2789 160.423V149.323C39.3533 149.323 33.6704 146.98 29.4804 142.808C25.2904 138.636 22.9365 132.978 22.9365 127.079V71.4672Z" fill="#2B8CFF"/>
</g>
<defs>
<filter id="filter0_d_8676_252" x="27.8588" y="0.000422478" width="180.554" height="138.767" filterUnits="userSpaceOnUse" color-interpolation-filters="sRGB">
<feFlood flood-opacity="0" result="BackgroundImageFix"/>
<feColorMatrix in="SourceAlpha" type="matrix" values="0 0 0 0 0 0 0 0 0 0 0 0 0 0 0 0 0 0 127 0" result="hardAlpha"/>
<feOffset/>
<feGaussianBlur stdDeviation="3.35135"/>
<feComposite in2="hardAlpha" operator="out"/>
<feColorMatrix type="matrix" values="0 0 0 0 0 0 0 0 0 0 0 0 0 0 0 0 0 0 0.25 0"/>
<feBlend mode="normal" in2="BackgroundImageFix" result="effect1_dropShadow_8676_252"/>
<feBlend mode="normal" in="SourceGraphic" in2="effect1_dropShadow_8676_252" result="shape"/>
</filter>
<filter id="filter1_d_8676_252" x="0.000422478" y="27.8578" width="180.554" height="166.599" filterUnits="userSpaceOnUse" color-interpolation-filters="sRGB">
<feFlood flood-opacity="0" result="BackgroundImageFix"/>
<feColorMatrix in="SourceAlpha" type="matrix" values="0 0 0 0 0 0 0 0 0 0 0 0 0 0 0 0 0 0 127 0" result="hardAlpha"/>
<feOffset/>
<feGaussianBlur stdDeviation="3.35135"/>
<feComposite in2="hardAlpha" operator="out"/>
<feColorMatrix type="matrix" values="0 0 0 0 0 0 0 0 0 0 0 0 0 0 0 0 0 0 0.25 0"/>
<feBlend mode="normal" in2="BackgroundImageFix" result="effect1_dropShadow_8676_252"/>
<feBlend mode="normal" in="SourceGraphic" in2="effect1_dropShadow_8676_252" result="shape"/>
</filter>
<filter id="filter2_d_8676_252" x="16.2338" y="49.2227" width="147.459" height="135.73" filterUnits="userSpaceOnUse" color-interpolation-filters="sRGB">
<feFlood flood-opacity="0" result="BackgroundImageFix"/>
<feColorMatrix in="SourceAlpha" type="matrix" values="0 0 0 0 0 0 0 0 0 0 0 0 0 0 0 0 0 0 127 0" result="hardAlpha"/>
<feOffset dy="6.7027"/>
<feGaussianBlur stdDeviation="3.35135"/>
<feComposite in2="hardAlpha" operator="out"/>
<feColorMatrix type="matrix" values="0 0 0 0 0 0 0 0 0 0 0 0 0 0 0 0 0 0 0.25 0"/>
<feBlend mode="normal" in2="BackgroundImageFix" result="effect1_dropShadow_8676_252"/>
<feBlend mode="normal" in="SourceGraphic" in2="effect1_dropShadow_8676_252" result="shape"/>
</filter>
</defs>
</svg>
