<svg width="78" height="78" viewBox="0 0 78 78" fill="none" xmlns="http://www.w3.org/2000/svg">
<ellipse cx="38.6261" cy="38.9773" rx="38.6261" ry="38.9773" transform="matrix(-1 0 0 1 77.2539 0)" fill="white"/>
<g clip-path="url(#clip0_4648_2566)">
<path d="M40.4283 49.5656C40.9431 46.5994 41.2352 43.6639 41.1737 40.6363C41.3658 40.6363 41.5425 40.6363 41.7116 40.6363C44.8776 40.5594 48.0359 40.4288 51.1481 39.7756C52.0933 39.5758 53.0538 39.3222 53.9221 38.915C57.2264 37.3627 58.1793 33.9278 56.2198 30.8386C55.1363 29.1327 53.6686 27.8033 52.0164 26.6814C48.6429 24.3914 44.9775 22.6624 41.1737 21.21C40.4667 20.9411 39.7521 20.6952 39.0297 20.4877C37.8386 20.1419 36.6937 20.3187 35.6255 20.9334C33.8735 21.9477 33.2434 24.0149 34.0425 26.0666C34.5497 27.3653 35.0876 28.6486 35.5794 29.9549C37.1086 34.0277 37.8924 38.2234 37.685 42.5881C37.4928 46.6301 36.9549 50.6184 35.5487 54.4375C35.1107 55.6286 34.5036 56.7428 33.7505 57.7725C32.3673 59.6399 30.5308 60.6388 28.2254 60.9309C24.9519 61.3458 22.685 59.9011 21.0405 57.0886C19.9262 55.1829 19.3653 53.0851 18.9503 50.9411C18.1665 46.9375 17.9821 42.8955 18.1435 38.8304C18.2818 35.457 18.6276 32.1142 19.4805 28.8407C20.3105 25.6516 21.6245 22.7008 23.5687 20.0113C25.8894 16.8146 29.0323 15.6542 32.8591 16.0845C34.9493 16.3227 36.9242 16.999 38.8837 17.729C44.1783 19.7116 49.3192 22.04 54.1143 25.0523C56.8345 26.7582 59.2859 28.7869 61.1762 31.415C61.6988 32.1527 62.1445 32.9519 62.5748 33.751C63.5046 35.4877 63.4124 37.332 63.0205 39.1762C62.7823 40.2982 62.4749 41.397 61.7526 42.3115C60.792 43.5333 59.4857 44.2326 58.0256 44.6091C56.3812 45.0318 54.706 45.3468 53.0384 45.7157C49.1117 46.5994 45.3002 47.875 41.5041 49.1814C41.166 49.3197 40.8279 49.4273 40.4283 49.5656ZM23.1844 45.0548C23.1537 46.2613 23.2613 47.4601 23.561 48.6358C23.9606 50.2341 24.5984 51.7172 25.8279 52.8776C27.1957 54.1609 28.8402 54.1224 30.1619 52.8007C30.7767 52.186 31.2147 51.4483 31.5374 50.6491C32.8899 47.2833 32.7592 43.9252 31.376 40.6055C30.9303 39.5297 30.2618 38.5922 29.2859 37.9083C28.2101 37.1629 27.0651 37.1783 25.9969 37.939C25.3822 38.3771 24.9288 38.9611 24.5523 39.6066C23.5687 41.2895 23.2536 43.1414 23.1844 45.0548Z" fill="#474747"/>
<path d="M41.0338 37.1013C40.6419 35.3185 40.3192 33.5664 39.8735 31.8528C39.2972 29.6089 38.4749 27.4419 37.5067 25.3364C37.3914 25.0828 37.2685 24.8292 37.184 24.5603C37.061 24.176 37.2301 23.8917 37.6296 23.9071C38.083 23.9301 38.5595 23.9762 38.9744 24.153C41.3182 25.1443 43.6619 26.1356 45.9672 27.2114C47.8038 28.0644 49.5559 29.0941 51.1081 30.4004C51.8074 30.9921 52.4299 31.676 53.0446 32.36C53.2982 32.6443 53.4673 33.0285 53.6133 33.3974C53.9975 34.3733 53.7055 35.1571 52.7987 35.6796C51.9611 36.1638 51.0236 36.3405 50.0938 36.4788C47.0969 36.9245 44.0769 37.0014 41.0646 37.1089C41.0185 37.1013 40.9954 37.0859 41.0338 37.1013Z" fill="#474747"/>
<path d="M27.7102 41.3201C29.3239 44.0019 29.2394 47.9978 27.9023 49.942C26.4807 47.9287 26.3654 43.3795 27.7102 41.3201Z" fill="#474747"/>
</g>
<defs>
<clipPath id="clip0_4648_2566">
<rect width="45.2075" height="45" fill="white" transform="translate(18.0898 16)"/>
</clipPath>
</defs>
</svg>
