<svg width="85" height="68" viewBox="0 0 85 68" fill="none" xmlns="http://www.w3.org/2000/svg">
<g clip-path="url(#clip0_3716_2240)">
<path d="M6.36276 44.0032C6.36276 43.4071 6.36276 42.9736 6.36276 42.5401C6.36276 30.0761 6.36276 17.6121 6.36276 5.14816C6.36276 2.51989 7.53199 0.758676 9.76168 0.162574C10.2783 0.0270956 10.8221 0 11.3388 0C30.2095 0 49.1075 0 67.9782 0C71.0237 0 72.9271 1.92379 72.9543 4.95849C72.9543 7.69515 72.9543 10.4318 72.9543 13.331C73.3077 13.331 73.634 13.331 73.9603 13.331C76.2444 13.331 78.5285 13.3039 80.8397 13.331C83.1782 13.3581 84.8369 14.9568 85 17.2599C85.0272 17.5308 85.0272 17.8018 85.0272 18.0457C85.0272 32.8398 85.0272 47.6069 85.0272 62.4011C85.0272 63.0243 85 63.6746 84.8369 64.2707C84.3474 65.9506 82.8519 67.1158 81.0573 67.1158C73.4437 67.1429 65.8573 67.1429 58.2438 67.1158C55.9325 67.1158 54.2738 65.3545 54.2466 63.0514C54.2195 60.938 54.2466 58.8245 54.2466 56.6027C53.7572 56.6027 53.3765 56.6027 52.9958 56.6027C38.9923 56.6027 24.9888 56.4943 10.9853 56.6569C4.62252 56.7382 0.0271913 51.4816 0 45.4664C0 44.4639 0.435061 44.0303 1.46833 44.0032C3.04543 44.0032 4.64971 44.0032 6.36276 44.0032ZM8.94594 43.949C24.0915 43.949 39.1011 43.949 54.2194 43.949C54.2194 43.4884 54.2194 43.1091 54.2194 42.7297C54.2194 34.5198 54.2194 26.3369 54.2194 18.1269C54.2194 14.9026 55.7694 13.3581 59.0595 13.3581C62.4856 13.3581 65.8845 13.3581 69.3106 13.3581C69.6641 13.3581 69.9904 13.3581 70.3711 13.3581C70.3711 10.3505 70.3983 7.50548 70.3711 4.66044C70.3711 3.41404 69.5553 2.65537 68.3045 2.60118C68.0598 2.60118 67.8423 2.60118 67.5976 2.60118C48.9715 2.60118 30.3455 2.60118 11.7466 2.60118C11.4203 2.60118 11.0669 2.60118 10.7406 2.62827C9.78887 2.76375 9.19066 3.33276 9.00032 4.2811C8.91875 4.66044 8.94594 5.06687 8.94594 5.47331C8.94594 17.9373 8.94594 30.4012 8.94594 42.8923C8.94594 43.1633 8.94594 43.4884 8.94594 43.949ZM56.8026 40.2911C56.8026 47.634 56.8026 54.9769 56.8026 62.3198C56.8026 64.2165 57.1833 64.5959 59.0323 64.5959C66.1021 64.5959 73.1718 64.5959 80.2415 64.5959C82.0361 64.5959 82.444 64.1623 82.444 62.3469C82.444 47.634 82.444 32.9211 82.444 18.2082C82.444 16.3386 82.0361 15.9051 80.1871 15.9051C73.1446 15.9051 66.1292 15.9051 59.0867 15.9051C57.1833 15.9051 56.8026 16.2844 56.8026 18.154C56.7754 25.524 56.8026 32.894 56.8026 40.2911ZM2.69194 46.5773C3.127 50.9668 6.44434 54.0557 10.659 54.0557C24.8257 54.0557 38.9923 54.0557 53.1862 54.0557C53.5125 54.0557 53.8116 54.0286 54.1651 54.0015C54.1651 51.5087 54.1651 49.1243 54.1651 46.5773C52.0713 46.5773 50.032 46.5502 47.9926 46.6044C47.8023 46.6044 47.5032 46.9837 47.4216 47.2547C47.0681 48.2843 46.769 49.3411 46.4971 50.3978C46.2796 51.2107 45.7901 51.6442 44.9472 51.6442C40.8957 51.6442 36.8442 51.6442 32.7927 51.6442C32.0313 51.6442 31.5419 51.2919 31.3244 50.5604C31.0525 49.5849 30.699 48.6095 30.4814 47.6069C30.3183 46.8212 29.9376 46.5773 29.1219 46.5773C20.6654 46.6044 12.2089 46.6044 3.72521 46.6044C3.4261 46.5773 3.09981 46.5773 2.69194 46.5773ZM33.5813 49.043C36.4091 49.043 39.2099 49.043 41.9834 49.043C44.3218 49.043 44.3218 49.043 44.8113 46.767C44.8113 46.7399 44.7841 46.7128 44.7569 46.6586C40.8413 46.6586 36.8986 46.6586 32.8743 46.6586C33.1462 47.4986 33.3637 48.2572 33.5813 49.043Z" fill="black"/>
<path d="M33.8256 14.2795C33.8256 12.5182 33.8256 10.8654 33.8256 9.21258C33.8256 7.12622 34.6414 6.31335 36.7079 6.31335C38.6929 6.31335 40.6778 6.31335 42.69 6.31335C44.6477 6.31335 45.4907 7.18041 45.4907 9.0771C45.4907 10.7841 45.4907 12.4911 45.4907 14.1711C45.6266 14.2524 45.681 14.3066 45.7354 14.3066C48.2098 14.144 49.7053 15.3362 49.5422 18.2354C49.4334 20.4302 49.5422 22.652 49.515 24.8738C49.515 26.7705 48.4001 27.9356 46.524 27.9627C41.983 27.9898 37.4421 27.9898 32.9011 27.9627C30.9705 27.9356 29.8285 26.7705 29.8285 24.8196C29.8013 22.4623 29.8285 20.1321 29.8285 17.7748C29.8285 15.4175 30.8618 14.3878 33.173 14.3066C33.3362 14.3066 33.5265 14.3066 33.8256 14.2795ZM46.9046 16.9077C42.1461 16.9077 37.6052 16.9077 33.0371 16.9077C32.4117 16.9077 32.3573 17.2329 32.3573 17.7206C32.3573 19.9966 32.3845 22.2727 32.3573 24.5487C32.3573 25.2803 32.6564 25.4428 33.309 25.4157C34.587 25.3886 35.8922 25.4157 37.1973 25.4157C40.134 25.4157 43.0978 25.4428 46.0345 25.3886C46.3336 25.3886 46.9046 25.0906 46.9046 24.928C46.9318 22.2997 46.9046 19.6715 46.9046 16.9077ZM36.4632 8.91453C36.4632 10.757 36.4632 12.5182 36.4632 14.2524C38.6385 14.2524 40.7322 14.2524 42.8531 14.2524C42.8531 12.437 42.8531 10.7028 42.8531 8.91453C40.7322 8.91453 38.6657 8.91453 36.4632 8.91453Z" fill="black"/>
<path d="M21.7237 36.9042C22.1859 37.5545 22.621 38.0964 23.0017 38.6654C23.5455 39.4783 23.4911 40.237 22.8385 40.6705C22.0771 41.1582 21.4517 40.8873 20.9623 40.2099C20.5544 39.6409 20.1466 39.099 19.6571 38.4216C19.1949 39.0448 18.7598 39.6138 18.3247 40.1828C17.7265 40.9686 16.9652 41.1311 16.367 40.6434C15.6872 40.0744 15.7144 39.397 16.2038 38.7196C16.6117 38.1506 17.0196 37.6087 17.509 36.9042C16.7205 36.6333 16.0135 36.4165 15.3337 36.1455C14.4636 35.8204 14.1101 35.1972 14.4092 34.4656C14.7083 33.7069 15.3065 33.4631 16.0951 33.7069C16.7748 33.9237 17.4818 34.1405 18.3519 34.4114C18.3519 33.6528 18.3519 32.9754 18.3519 32.298C18.3791 31.2683 18.787 30.7264 19.5755 30.7264C20.4185 30.6993 20.8807 31.2412 20.9079 32.3251C20.9351 32.9754 20.9079 33.6257 20.9079 34.4114C21.7237 34.1676 22.4034 33.9508 23.1104 33.734C23.9805 33.4902 24.6331 33.7882 24.8779 34.5198C25.1226 35.2243 24.7419 35.8475 23.8718 36.1726C23.5183 36.3081 23.192 36.4165 22.8385 36.5249C22.5122 36.6333 22.2131 36.7417 21.7237 36.9042Z" fill="black"/>
<path d="M33.2031 38.4216C32.7137 39.099 32.333 39.6409 31.8979 40.2099C31.2997 40.9957 30.5655 41.1583 29.9401 40.6705C29.3147 40.2099 29.2876 39.4783 29.8314 38.6655C30.2121 38.1235 30.5927 37.6087 31.0822 36.9313C30.3208 36.6604 29.641 36.4436 28.9884 36.1998C28.0639 35.8746 27.6561 35.2243 27.9824 34.4656C28.3359 33.6528 28.9885 33.4902 29.777 33.7612C30.4296 33.9779 31.0822 34.1676 31.9251 34.4386C31.9251 33.6257 31.9251 32.9212 31.9251 32.2167C31.9251 31.3768 32.2786 30.8077 33.1759 30.7536C33.9916 30.6994 34.4811 31.2684 34.5083 32.2438C34.5355 32.5961 34.5083 32.9754 34.5083 33.3276C34.5083 33.6528 34.5083 33.9779 34.5083 34.4115C35.324 34.1676 36.0582 33.9508 36.7652 33.7341C37.5809 33.4902 38.1791 33.7612 38.451 34.5198C38.7229 35.3056 38.3423 35.8746 37.5809 36.1456C36.8739 36.4165 36.167 36.6333 35.324 36.9042C35.8135 37.5816 36.2485 38.1506 36.6292 38.7467C37.1186 39.5054 37.0371 40.2641 36.4117 40.6705C35.6503 41.1583 35.0249 40.8873 34.5355 40.237C34.1276 39.668 33.7197 39.099 33.2031 38.4216Z" fill="black"/>
<path d="M48.0743 34.4387C48.9173 34.1677 49.6514 33.9509 50.3856 33.7342C51.147 33.4903 51.7452 33.7342 52.0171 34.4387C52.3162 35.1973 52.0171 35.8205 51.2557 36.1186C50.5488 36.3895 49.8146 36.6063 48.9717 36.9044C49.4067 37.5276 49.7874 38.0695 50.1681 38.6385C50.7391 39.4513 50.7119 40.1829 50.0865 40.6706C49.4339 41.1584 48.7269 40.9687 48.0743 40.1287C47.6665 39.6139 47.2858 39.072 46.8235 38.4488C46.3341 39.0991 45.9262 39.6681 45.4912 40.2371C45.0017 40.8874 44.3763 41.1855 43.615 40.6977C42.9624 40.2642 42.908 39.5055 43.4518 38.6927C43.8325 38.1237 44.2404 37.5817 44.7298 36.9044C43.9685 36.6334 43.2615 36.4166 42.6089 36.1728C41.7388 35.8747 41.3581 35.2515 41.5756 34.5199C41.7932 33.7884 42.4729 33.4903 43.3431 33.7342C43.9956 33.9238 44.6754 34.1406 45.5456 34.4116C45.5456 33.68 45.5456 33.0026 45.5456 32.3523C45.5727 31.2956 46.035 30.7266 46.8507 30.7266C47.6665 30.7266 48.1015 31.2956 48.1287 32.3794C48.0743 33.0026 48.0743 33.6258 48.0743 34.4387Z" fill="black"/>
<path d="M63.7927 29.6427C63.7927 27.8544 63.7927 26.0932 63.7927 24.3591C63.7927 22.5978 64.7172 21.6766 66.4846 21.6766C68.5783 21.6766 70.6721 21.6495 72.7658 21.6766C74.506 21.6766 75.4034 22.5707 75.4034 24.3049C75.4305 26.0661 75.4034 27.8002 75.4034 29.6427C75.92 29.6969 76.3822 29.724 76.8173 29.7511C78.2041 29.8866 79.2917 30.7536 79.3461 32.1084C79.4549 35.0347 79.4549 37.9881 79.3461 40.9145C79.2917 42.3505 78.0953 43.2718 76.627 43.2989C71.9501 43.326 67.2732 43.326 62.5963 43.2989C60.9376 43.2989 59.7956 42.1609 59.7684 40.4809C59.714 37.961 59.7412 35.4412 59.7412 32.9484C59.7412 30.8349 60.7744 29.8324 62.8954 29.724C63.1945 29.6969 63.4392 29.6698 63.7927 29.6427ZM62.3243 32.3523C62.3243 35.0347 62.2972 37.6359 62.3515 40.2371C62.3515 40.4267 62.8682 40.7519 63.1673 40.7519C67.4363 40.779 71.7325 40.7519 76.0016 40.779C76.6814 40.779 76.9261 40.5622 76.9261 39.8848C76.8989 37.7172 76.8717 35.5224 76.9261 33.3548C76.9533 32.5148 76.6814 32.271 75.8656 32.2981C71.7325 32.3252 67.5723 32.3252 63.4392 32.3252C63.1129 32.271 62.7866 32.3252 62.3243 32.3523ZM72.8202 24.332C70.6449 24.332 68.524 24.332 66.4302 24.332C66.4302 26.1474 66.4302 27.8815 66.4302 29.6427C68.5783 29.6427 70.6721 29.6427 72.8202 29.6427C72.8202 27.8273 72.8202 26.1203 72.8202 24.332Z" fill="black"/>
<path d="M69.6062 54.977C69.0896 55.6544 68.6817 56.2505 68.2467 56.8195C67.7029 57.524 66.9143 57.6595 66.3433 57.1989C65.7179 56.6569 65.6635 56.0337 66.1529 55.3564C66.3705 55.0583 66.588 54.7603 66.8055 54.4622C67.0231 54.1642 67.2134 53.8661 67.5125 53.4597C66.7783 53.2158 66.0986 52.999 65.4188 52.7552C64.4943 52.43 64.1136 51.7797 64.4127 51.0211C64.739 50.154 65.4188 50.0727 66.2073 50.2895C66.8599 50.4792 67.5125 50.6959 68.3554 50.9669C68.3554 50.1269 68.3554 49.4224 68.3554 48.7179C68.3554 47.878 68.7089 47.309 69.6062 47.2548C70.3676 47.2006 70.8842 47.7696 70.9114 48.6908C70.9386 49.3953 70.9114 50.1269 70.9114 50.9669C71.7 50.723 72.3526 50.4792 73.0323 50.2895C73.9569 50.0185 74.691 50.3166 74.8814 51.1024C75.0989 51.9965 74.6366 52.4842 73.8481 52.7552C73.1955 52.9719 72.5429 53.1887 71.7272 53.4597C72.1622 54.0558 72.5429 54.5435 72.8964 55.0854C73.5762 56.0337 73.549 56.7653 72.842 57.253C72.1894 57.7137 71.4824 57.4969 70.8298 56.6299C70.422 56.115 70.0685 55.6002 69.6062 54.977Z" fill="black"/>
<path d="M69.4984 62.5637C68.8458 62.5637 68.166 62.5908 67.5134 62.5637C66.752 62.5366 66.2354 62.1031 66.2354 61.3444C66.2082 60.5316 66.7248 60.0439 67.5406 60.0168C68.9273 59.9897 70.3141 59.9626 71.7009 60.0168C72.5166 60.0439 73.006 60.5045 72.9788 61.3444C72.9516 62.1302 72.4622 62.5366 71.7009 62.5637C70.9667 62.5908 70.2325 62.5637 69.4984 62.5637Z" fill="black"/>
</g>
<defs>
<clipPath id="clip0_3716_2240">
<rect width="85" height="67.1429" fill="white"/>
</clipPath>
</defs>
</svg>
